<?xml version="1.0" encoding="utf-8"?>
<!-- Generator: Adobe Illustrator 19.1.0, SVG Export Plug-In . SVG Version: 6.00 Build 0)  -->
<svg version="1.1" id="Layer_1" xmlns="http://www.w3.org/2000/svg" xmlns:xlink="http://www.w3.org/1999/xlink" x="0px" y="0px"
	 width="200px" height="200px" viewBox="0 0 200 200" style="enable-background:new 0 0 200 200;" xml:space="preserve">
<circle style="fill:#FFF0A5;" cx="100.3" cy="99.7" r="94.9"/>
<g>
	<path style="fill:#468966;" d="M83.1,172.4c0-0.2,0-0.5,0-0.7c0-20.9,0-41.7,0-62.6c0-0.7,0-0.7-0.7-0.7c-5.3,0-10.6,0-15.9,0
		c-0.6,0-0.6,0-0.6-0.7c0-7.3,0-14.7,0-22c0-0.6,0-0.7,0.7-0.7c5.3,0,10.6,0,15.9,0c0.2,0,0.4,0,0.7,0c0-0.2,0-0.4,0-0.6
		c0-2.7,0-5.4,0-8.1c0.1-3.5,0.4-6.9,1-10.4c0.8-4.5,2-8.9,4-13.1c1.8-3.7,3.9-7.1,7.1-9.7c2.4-2,5.1-3.4,8-4.5
		c3.1-1.2,6.4-1.9,9.7-2.4c4.6-0.7,9.2-0.9,13.8-0.8c2.4,0,4.7,0.1,7.1,0.2c0.4,0,0.6,0.2,0.6,0.6c0,7.5,0,14.9,0,22.4
		c0,0.2,0,0.4,0,0.7c-0.7,0-1.4-0.1-2.1-0.1c-3.4-0.3-6.8-0.4-10.2,0c-2.4,0.3-4.9,0.7-7,2c-3.2,2-5.4,4.7-5.8,8.6
		c-0.2,2.6-0.4,5.2-0.5,7.8c-0.1,2.3-0.1,4.6-0.1,6.8c0,0.2,0,0.4,0,0.6c0.3,0,0.5,0,0.7,0c8.1,0,16.2,0,24.4,0c0.7,0,0.7,0,0.7,0.7
		c0,7.3,0,14.6,0,21.9c0,0.2,0,0.5,0,0.7c-8.6,0-17.1,0-25.7,0c0,0.3,0,0.5,0,0.7c0,20.9,0,41.7,0,62.6c0,0.3,0,0.5,0,0.8
		C100,172.4,91.5,172.4,83.1,172.4z"/>
</g>
</svg>
