<svg xmlns="http://www.w3.org/2000/svg" width="200" height="200" viewBox="0 0 200 200"><circle cx="100.3" cy="99.7" r="94.9" fill="#FFF0A5"/><path d="M83.1 172.4v-63.300000000000004c0-.7 0-.7-.7-.7h-15.9c-.6 0-.6 0-.6-.7v-22c0-.6 0-.7.7-.7h16.6v-8.7c.1-3.5.4-6.9 1-10.4.8-4.5 2-8.9 4-13.1 1.8-3.7 3.9-7.1 7.1-9.7 2.4-2 5.1-3.4 8-4.5 3.1-1.2 6.4-1.9 9.7-2.4 4.6-.7 9.2-.9 13.8-.8 2.4 0 4.7.1 7.1.2.4 0 .6.2.6.6v23.099999999999998l-2.1-.1c-3.4-.3-6.8-.4-10.2 0-2.4.3-4.9.7-7 2-3.2 2-5.4 4.7-5.8 8.6-.2 2.6-.4 5.2-.5 7.8-.1 2.3-.1 4.6-.1 6.8v.6h25.099999999999998c.7 0 .7 0 .7.7v22.599999999999998h-25.7v64.10000000000001h-25.8z" fill="#468966"/></svg>