<?xml version="1.0" encoding="utf-8"?>
<!-- Generator: Adobe Illustrator 19.1.0, SVG Export Plug-In . SVG Version: 6.00 Build 0)  -->
<svg version="1.1" id="Layer_1" xmlns="http://www.w3.org/2000/svg" xmlns:xlink="http://www.w3.org/1999/xlink" x="0px" y="0px"
	 width="144px" height="144px" viewBox="0 0 144 144" style="enable-background:new 0 0 144 144;" xml:space="preserve">
<circle style="fill:#B74A26;" cx="72" cy="67.8" r="60.6"/>
<path style="fill:#8F3919;" d="M94.8,29.5l33.9,28.2c2.6,2.2,4.1,5.4,4,8.8c-0.4,10.5-1.6,34.4-28.1,52.3c-37.1-1.5-50-9-52.3-10.9
	c-5.8-4.6,42.6-6.6,42.6-6.6L94.8,29.5z"/>
<g>
	<path style="fill:none;stroke:#FFF0A5;stroke-width:4;stroke-miterlimit:10;" d="M83.5,109.6H60.5c-6.6,0-12-5.4-12-12V37.9
		c0-6.6,5.4-12,12-12h22.9c6.6,0,12,5.4,12,12v59.7C95.5,104.2,90.1,109.6,83.5,109.6z"/>
	<g>
		<path style="fill:#FFF0A5;" d="M95.5,37.9c0-6.6-5-12-11.2-12H59.7c-6.1,0-11.2,5.4-11.2,12v0L95.5,37.9L95.5,37.9z"/>
		<path style="fill:#FFF0A5;" d="M48.5,97.6c0,6.6,5,12,11.2,12h24.6c6.1,0,11.2-5.4,11.2-12v-4.5H48.5V97.6z"/>
	</g>
	<ellipse style="fill:#8E2C1D;" cx="72" cy="102.5" rx="5.1" ry="5.5"/>
	<path style="fill:#8E2C1D;" d="M83.4,31.9H60.6c-0.7,0-1.2-0.5-1.2-1.2v0c0-0.7,0.5-1.2,1.2-1.2h22.8c0.7,0,1.2,0.5,1.2,1.2v0
		C84.6,31.4,84.1,31.9,83.4,31.9z"/>
</g>
<path style="fill:#FFF0A5;" d="M85.1,48.2H58.9c-0.6,0-1.1-0.5-1.1-1.1v0c0-0.6,0.5-1.1,1.1-1.1h26.3c0.6,0,1.1,0.5,1.1,1.1v0
	C86.2,47.7,85.7,48.2,85.1,48.2z"/>
<path style="fill:#FFF0A5;" d="M85.1,52.3H58.9c-0.6,0-1.1-0.5-1.1-1.1v0c0-0.6,0.5-1.1,1.1-1.1h26.3c0.6,0,1.1,0.5,1.1,1.1v0
	C86.2,51.8,85.7,52.3,85.1,52.3z"/>
<path style="fill:#FFF0A5;" d="M73.1,56.6H58.9c-0.6,0-1.1-0.5-1.1-1.1v0c0-0.6,0.5-1.1,1.1-1.1h14.2c0.6,0,1.1,0.5,1.1,1.1v0
	C74.1,56.1,73.6,56.6,73.1,56.6z"/>
</svg>
