<?xml version="1.0" encoding="utf-8"?>
<!-- Generator: Adobe Illustrator 19.1.0, SVG Export Plug-In . SVG Version: 6.00 Build 0)  -->
<svg version="1.1" id="Layer_1" xmlns="http://www.w3.org/2000/svg" xmlns:xlink="http://www.w3.org/1999/xlink" x="0px" y="0px"
	 width="144px" height="144px" viewBox="0 0 144 144" style="enable-background:new 0 0 144 144;" xml:space="preserve">
<g>
	<path style="fill:#B74A26;" d="M46.6,62.3l42.4-30l42.8,30.1c-4.6-28.9-29.6-51-59.8-51c-33.5,0-60.6,27.1-60.6,60.6
		c0,33.5,27.1,60.6,60.6,60.6c15.5,0,29.6-5.8,40.3-15.4c-23.9-3.1-58.6-10.9-58.6-10.9l42.4-30l30.7,21.7c2.9-6,4.8-12.6,5.5-19.5
		C107.1,73.4,46.6,62.3,46.6,62.3z"/>
	<path style="fill:#8F3919;" d="M46.6,62.3c0,0,60.5,11.1,85.6,16.2c0.2-2.1,0.3-4.3,0.3-6.5c0-3.3-0.3-6.5-0.8-9.6L89,32.3
		L46.6,62.3z"/>
	<path style="fill:#8F3919;" d="M53.7,106.3c0,0,34.8,7.8,58.6,10.9c6-5.4,10.9-11.9,14.4-19.3L96.1,76.2L53.7,106.3z"/>
</g>
<path style="fill:#B74A26;stroke:#FFF0A5;stroke-width:3;stroke-linejoin:round;stroke-miterlimit:10;" d="M102.3,66.4l-6-11.8
	c0.6-1.4,0.9-2.9,0.9-4.5v-5.9c0-6.6-5.4-12-12-12H53.7c-6.6,0-12,5.4-12,12v5.9c0,6.6,5.4,12,12,12h31.4c1.3,0,2.5-0.2,3.6-0.6
	L102.3,66.4z"/>
<path style="fill:#B74A26;stroke:#FFF0A5;stroke-width:3;stroke-linejoin:round;stroke-miterlimit:10;" d="M44.9,110.7l6-11.8
	c-0.6-1.4-0.9-2.9-0.9-4.5v-5.9c0-6.6,5.4-12,12-12h31.4c6.6,0,12,5.4,12,12v5.9c0,6.6-5.4,12-12,12H62c-1.3,0-2.5-0.2-3.6-0.6
	L44.9,110.7z"/>
<path style="fill:#FFF0A5;" d="M83.7,49.3H50.1c-0.6,0-1.1-0.5-1.1-1.1v0c0-0.6,0.5-1.1,1.1-1.1h33.6c0.6,0,1.1,0.5,1.1,1.1v0
	C84.8,48.9,84.3,49.3,83.7,49.3z"/>
<path style="fill:#FFF0A5;" d="M83.7,53.4H50.1c-0.6,0-1.1-0.5-1.1-1.1v0c0-0.6,0.5-1.1,1.1-1.1h33.6c0.6,0,1.1,0.5,1.1,1.1v0
	C84.8,53,84.3,53.4,83.7,53.4z"/>
<path style="fill:#FFF0A5;" d="M94.8,86.3H61.2c-0.6,0-1.1-0.5-1.1-1.1l0,0c0-0.6,0.5-1.1,1.1-1.1h33.6c0.6,0,1.1,0.5,1.1,1.1l0,0
	C95.9,85.9,95.4,86.3,94.8,86.3z"/>
<path style="fill:#FFF0A5;" d="M94.8,90.4H61.2c-0.6,0-1.1-0.5-1.1-1.1v0c0-0.6,0.5-1.1,1.1-1.1h33.6c0.6,0,1.1,0.5,1.1,1.1v0
	C95.9,89.9,95.4,90.4,94.8,90.4z"/>
<path style="fill:#FFF0A5;" d="M78.3,94.8H61.2c-0.6,0-1.1-0.5-1.1-1.1v0c0-0.6,0.5-1.1,1.1-1.1h17.1c0.6,0,1.1,0.5,1.1,1.1v0
	C79.4,94.3,78.9,94.8,78.3,94.8z"/>
</svg>
