<?xml version="1.0" encoding="utf-8"?>
<!-- Generator: Adobe Illustrator 19.1.0, SVG Export Plug-In . SVG Version: 6.00 Build 0)  -->
<svg version="1.1" id="Layer_1" xmlns="http://www.w3.org/2000/svg" xmlns:xlink="http://www.w3.org/1999/xlink" x="0px" y="0px"
	 width="144px" height="144px" viewBox="0 0 144 144" style="enable-background:new 0 0 144 144;" xml:space="preserve">
<circle style="fill:#B74A26;" cx="-1022.4" cy="67.8" r="60.6"/>
<rect x="-961.8" y="-72.6" style="fill:#468A67;" width="51.6" height="57.5"/>
<rect x="-883.5" y="-90.9" style="fill:#FFF0A5;" width="54.9" height="75.9"/>
<rect x="-809.7" y="-101.7" style="fill:#FBAF3D;" width="54.6" height="67.5"/>
<rect x="-737.7" y="-101.7" style="fill:#B74A26;" width="50" height="77.5"/>
<rect x="-665.7" y="-68" style="fill:#8E2C1D;" width="29.5" height="58.8"/>
<path style="fill:#8F3919;" d="M-999.6,29.5l33.9,28.2c2.6,2.2,4.1,5.4,4,8.8c-0.4,10.5-1.6,34.4-28.1,52.3
	c-37.1-1.5-50-9-52.3-10.9c-5.8-4.6,42.6-6.6,42.6-6.6L-999.6,29.5z"/>
<g>
	<path style="fill:#B74A26;" d="M-558,109.5l-1.9-72.2l32.1,25.6c-4.4-29.2-29.5-51.5-59.9-51.5c-33.5,0-60.6,27.1-60.6,60.6
		c0,33.5,27.1,60.6,60.6,60.6c9.1,0,17.8-2,25.5-5.6c-33.1-1.3-52-12.1-54.1-13.8C-622,108.6-558,109.5-558,109.5z"/>
	<path style="fill:#8F3919;" d="M-527.1,72c0-3.1-0.2-6.1-0.7-9.1l-32.1-25.6l1.9,72.2c0,0-64.1-0.9-58.3,3.7
		c2.1,1.7,21,12.4,54.1,13.8C-541.4,117.3-527.1,96.3-527.1,72z"/>
</g>
<g>
	<path style="fill:none;stroke:#FFF0A5;stroke-width:4;stroke-miterlimit:10;" d="M-1010.9,109.6h-22.9c-6.6,0-12-5.4-12-12V37.9
		c0-6.6,5.4-12,12-12h22.9c6.6,0,12,5.4,12,12v59.7C-998.9,104.2-1004.3,109.6-1010.9,109.6z"/>
	<g>
		<path style="fill:#FFF0A5;" d="M-998.9,37.9c0-6.6-5-12-11.2-12h-24.6c-6.1,0-11.2,5.4-11.2,12v0L-998.9,37.9L-998.9,37.9z"/>
		<path style="fill:#FFF0A5;" d="M-1045.9,97.6c0,6.6,5,12,11.2,12h24.6c6.1,0,11.2-5.4,11.2-12v-4.5h-46.9V97.6z"/>
	</g>
	<ellipse style="fill:#8E2C1D;" cx="-1022.4" cy="102.5" rx="5.1" ry="5.5"/>
	<path style="fill:#8E2C1D;" d="M-1011,31.9h-22.8c-0.7,0-1.2-0.5-1.2-1.2v0c0-0.7,0.5-1.2,1.2-1.2h22.8c0.7,0,1.2,0.5,1.2,1.2v0
		C-1009.8,31.4-1010.3,31.9-1011,31.9z"/>
</g>
<path style="fill:#FFF0A5;" d="M-1009.3,48.2h-26.3c-0.6,0-1.1-0.5-1.1-1.1v0c0-0.6,0.5-1.1,1.1-1.1h26.3c0.6,0,1.1,0.5,1.1,1.1v0
	C-1008.2,47.7-1008.7,48.2-1009.3,48.2z"/>
<path style="fill:#FFF0A5;" d="M-1009.3,52.3h-26.3c-0.6,0-1.1-0.5-1.1-1.1v0c0-0.6,0.5-1.1,1.1-1.1h26.3c0.6,0,1.1,0.5,1.1,1.1v0
	C-1008.2,51.8-1008.7,52.3-1009.3,52.3z"/>
<g>
	<path style="fill:#B74A26;" d="M-831.8,62.3l42.4-30l42.8,30.1c-4.6-28.9-29.6-51-59.8-51c-33.5,0-60.6,27.1-60.6,60.6
		c0,33.5,27.1,60.6,60.6,60.6c15.5,0,29.6-5.8,40.3-15.4c-23.9-3.1-58.6-10.9-58.6-10.9l42.4-30l30.7,21.7c2.9-6,4.8-12.6,5.5-19.5
		C-771.3,73.4-831.8,62.3-831.8,62.3z"/>
	<path style="fill:#8F3919;" d="M-831.8,62.3c0,0,60.5,11.1,85.6,16.2c0.2-2.1,0.3-4.3,0.3-6.5c0-3.3-0.3-6.5-0.8-9.6l-42.8-30.1
		L-831.8,62.3z"/>
	<path style="fill:#8F3919;" d="M-824.7,106.3c0,0,34.8,7.8,58.6,10.9c6-5.4,10.9-11.9,14.4-19.3l-30.7-21.7L-824.7,106.3z"/>
</g>
<path style="fill:#FFF0A5;" d="M-1021.3,56.6h-14.2c-0.6,0-1.1-0.5-1.1-1.1v0c0-0.6,0.5-1.1,1.1-1.1h14.2c0.6,0,1.1,0.5,1.1,1.1v0
	C-1020.3,56.1-1020.8,56.6-1021.3,56.6z"/>
<path style="fill:#B74A26;stroke:#FFF0A5;stroke-width:3;stroke-linejoin:round;stroke-miterlimit:10;" d="M-776.1,66.4l-6-11.8
	c0.6-1.4,0.9-2.9,0.9-4.5v-5.9c0-6.6-5.4-12-12-12h-31.4c-6.6,0-12,5.4-12,12v5.9c0,6.6,5.4,12,12,12h31.4c1.3,0,2.5-0.2,3.6-0.6
	L-776.1,66.4z"/>
<path style="fill:#B74A26;stroke:#FFF0A5;stroke-width:3;stroke-linejoin:round;stroke-miterlimit:10;" d="M-833.5,110.7l6-11.8
	c-0.6-1.4-0.9-2.9-0.9-4.5v-5.9c0-6.6,5.4-12,12-12h31.4c6.6,0,12,5.4,12,12v5.9c0,6.6-5.4,12-12,12h-31.4c-1.3,0-2.5-0.2-3.6-0.6
	L-833.5,110.7z"/>
<path style="fill:#FFF0A5;" d="M-794.7,49.3h-33.6c-0.6,0-1.1-0.5-1.1-1.1v0c0-0.6,0.5-1.1,1.1-1.1h33.6c0.6,0,1.1,0.5,1.1,1.1v0
	C-793.6,48.9-794.1,49.3-794.7,49.3z"/>
<path style="fill:#FFF0A5;" d="M-794.7,53.4h-33.6c-0.6,0-1.1-0.5-1.1-1.1v0c0-0.6,0.5-1.1,1.1-1.1h33.6c0.6,0,1.1,0.5,1.1,1.1v0
	C-793.6,53-794.1,53.4-794.7,53.4z"/>
<path style="fill:#FFF0A5;" d="M-783.6,86.3h-33.6c-0.6,0-1.1-0.5-1.1-1.1l0,0c0-0.6,0.5-1.1,1.1-1.1h33.6c0.6,0,1.1,0.5,1.1,1.1
	l0,0C-782.5,85.9-783,86.3-783.6,86.3z"/>
<path style="fill:#FFF0A5;" d="M-783.6,90.4h-33.6c-0.6,0-1.1-0.5-1.1-1.1v0c0-0.6,0.5-1.1,1.1-1.1h33.6c0.6,0,1.1,0.5,1.1,1.1v0
	C-782.5,89.9-783,90.4-783.6,90.4z"/>
<path style="fill:#FFF0A5;" d="M-800.1,94.8h-17.1c-0.6,0-1.1-0.5-1.1-1.1v0c0-0.6,0.5-1.1,1.1-1.1h17.1c0.6,0,1.1,0.5,1.1,1.1v0
	C-799,94.3-799.5,94.8-800.1,94.8z"/>
<g>
	<path style="fill:#B74A26;stroke:#FFF0A5;stroke-width:4.9815;stroke-miterlimit:10;" d="M-566.9,113.2h-41.5c-6.6,0-12-5.4-12-12
		V49.8c0-6.6,5.4-12,12-12h41.5c6.6,0,12,5.4,12,12v51.4C-554.9,107.8-560.3,113.2-566.9,113.2z"/>
</g>
<g>
	<path style="fill:#FFF0A5;" d="M-554.9,48.9c0-6.4-4.9-11.6-10.8-11.6h-43.9c-5.9,0-10.8,5.2-10.8,11.6v4.5h65.5V48.9z"/>
</g>
<rect x="-613.7" y="61.7" style="fill:#FFF0A5;" width="11.6" height="10.1"/>
<rect x="-600.1" y="61.7" style="fill:#FFF0A5;" width="11.6" height="10.1"/>
<rect x="-586.4" y="61.7" style="fill:#FFF0A5;" width="11.6" height="10.1"/>
<rect x="-572.2" y="61.7" style="fill:#FFF0A5;" width="11.6" height="10.1"/>
<rect x="-613.7" y="77.2" style="fill:#FFF0A5;" width="11.6" height="10.1"/>
<rect x="-600.1" y="77.2" style="fill:#FFF0A5;" width="11.6" height="10.1"/>
<rect x="-586.4" y="77.2" style="fill:#FFF0A5;" width="11.6" height="10.1"/>
<rect x="-572.2" y="77.2" style="fill:#FFF0A5;" width="11.6" height="10.1"/>
<rect x="-613.7" y="92.6" style="fill:#FFF0A5;" width="11.6" height="10.1"/>
<rect x="-600.1" y="92.6" style="fill:#FFF0A5;" width="11.6" height="10.1"/>
<rect x="-586.4" y="92.6" style="fill:#FFF0A5;" width="11.6" height="10.1"/>
<rect x="-572.2" y="92.6" style="fill:#FFF0A5;" width="11.6" height="10.1"/>
<path style="fill:#FFF0A5;stroke:#B74A26;stroke-width:3;stroke-miterlimit:10;" d="M-601.5,44.8L-601.5,44.8
	c-1.6,0-2.9-1.3-2.9-2.9V31.5c0-1.6,1.3-2.9,2.9-2.9l0,0c1.6,0,2.9,1.3,2.9,2.9v10.4C-598.6,43.5-599.9,44.8-601.5,44.8z"/>
<path style="fill:#FFF0A5;stroke:#B74A26;stroke-width:3;stroke-miterlimit:10;" d="M-571.3,44L-571.3,44c-1.6,0-2.9-1.3-2.9-2.9
	V30.7c0-1.6,1.3-2.9,2.9-2.9l0,0c1.6,0,2.9,1.3,2.9,2.9v10.4C-568.4,42.7-569.7,44-571.3,44z"/>
<g>
	<path style="fill:#B74A26;" d="M-128.7,109.3l-1.9-72.2l32.1,25.6c-4.4-29.2-29.5-51.5-59.9-51.5c-33.5,0-60.6,27.1-60.6,60.6
		c0,33.5,27.1,60.6,60.6,60.6c9.1,0,17.8-2,25.5-5.6c-33.1-1.3-52-12.1-54.1-13.8C-192.8,108.4-128.7,109.3-128.7,109.3z"/>
	<path style="fill:#8F3919;" d="M-97.8,71.8c0-3.1-0.2-6.1-0.7-9.1l-32.1-25.6l1.9,72.2c0,0-64.1-0.9-58.3,3.7
		c2.1,1.7,21,12.4,54.1,13.8C-112.2,117.1-97.8,96.2-97.8,71.8z"/>
</g>
<g>
	<path style="fill:#B74A26;stroke:#FFF0A5;stroke-width:4.9815;stroke-miterlimit:10;" d="M-137.7,113h-41.5c-6.6,0-12-5.4-12-12
		V49.6c0-6.6,5.4-12,12-12h41.5c6.6,0,12,5.4,12,12V101C-125.7,107.6-131.1,113-137.7,113z"/>
</g>
<g>
	<path style="fill:#FFF0A5;" d="M-125.7,48.7c0-6.4-4.9-11.6-10.8-11.6h-43.9c-5.9,0-10.8,5.2-10.8,11.6v4.5h65.5V48.7z"/>
</g>
<path style="fill:#FFF0A5;stroke:#B74A26;stroke-width:3;stroke-miterlimit:10;" d="M-172.2,44.6L-172.2,44.6
	c-1.6,0-2.9-1.3-2.9-2.9V31.3c0-1.6,1.3-2.9,2.9-2.9l0,0c1.6,0,2.9,1.3,2.9,2.9v10.4C-169.3,43.3-170.6,44.6-172.2,44.6z"/>
<path style="fill:#FFF0A5;stroke:#B74A26;stroke-width:3;stroke-miterlimit:10;" d="M-142,43.9L-142,43.9c-1.6,0-2.9-1.3-2.9-2.9
	V30.5c0-1.6,1.3-2.9,2.9-2.9h0c1.6,0,2.9,1.3,2.9,2.9v10.4C-139.1,42.5-140.4,43.9-142,43.9z"/>
<g>
	<path style="fill:#B74A26;" d="M-368.7,97.7l5.5-12.7l27.8-2.8l5.4-10l-0.3-33.4l-4.3-6.6l14.9,9.2c-9.8-20.3-30.5-34.3-54.6-34.3
		c-33.5,0-60.6,27.1-60.6,60.6c0,33.5,27.1,60.6,60.6,60.6c3.2,0,6.4-0.3,9.5-0.8l-32.2-28.4L-368.7,97.7z"/>
	<path style="fill:#8F3919;" d="M-313.8,67.8c0-3.1-0.2-6.1-0.7-9.1c-0.9-6.1-2.7-11.9-5.3-17.3l-14.9-9.2l4.3,6.6l0.3,33.4l-5.4,10
		l-27.8,2.8l-5.5,12.7l-28.4,1.5l32.2,28.4c5.6-0.9,11-2.6,16-4.9C-328.2,113.1-313.8,92.1-313.8,67.8z"/>
</g>
<g>
	<path style="fill:none;stroke:#FFF0A5;stroke-width:3;stroke-miterlimit:10;" d="M-343.8,83.6h-52.4c-6.6,0-12-5.4-12-12V41
		c0-6.6,5.4-12,12-12h52.4c6.6,0,12,5.4,12,12v30.6C-331.8,78.2-337.2,83.6-343.8,83.6z"/>
	
		<polygon style="fill:#FFF0A5;stroke:#FFF0A5;stroke-width:3;stroke-linecap:round;stroke-linejoin:round;stroke-miterlimit:10;" points="
		-377,84.4 -377,94.2 -396.9,98.5 -343.2,98.5 -362.4,94 -362.6,84.4 	"/>
	<g>
		<g>
			<g>
				<line style="fill:none;stroke:#000000;stroke-width:0.5;" x1="-264.4" y1="3.2" x2="-264.3" y2="3.2"/>
				<line style="fill:none;stroke:#000000;stroke-width:0.5;" x1="-264.4" y1="3.1" x2="-264.3" y2="3.1"/>
				<line style="fill:none;stroke:#000000;stroke-width:0.5;" x1="-264.4" y1="3.1" x2="-264.3" y2="3.1"/>
				<line style="fill:none;stroke:#000000;stroke-width:0.5;" x1="-264.4" y1="3.1" x2="-264.3" y2="3.1"/>
			</g>
		</g>
		<g>
			<g>
				<rect x="-264.3" y="3.1" style="fill:#3C3C3C;" width="0" height="0"/>
				<g>
					<path d="M-264.4,3.1L-264.4,3.1L-264.4,3.1C-264.4,3.1-264.3,3.1-264.4,3.1C-264.3,3.1-264.4,3.1-264.4,3.1
						C-264.4,3.1-264.4,3.1-264.4,3.1L-264.4,3.1C-264.4,3.1-264.4,3.1-264.4,3.1C-264.3,3.1-264.3,3.1-264.4,3.1
						C-264.3,3.1-264.3,3.1-264.4,3.1L-264.4,3.1L-264.4,3.1L-264.4,3.1L-264.4,3.1z"/>
					<path d="M-264.3,3.1C-264.3,3.1-264.3,3.1-264.3,3.1C-264.3,3.1-264.3,3.1-264.3,3.1C-264.3,3.1-264.3,3.1-264.3,3.1
						C-264.3,3.1-264.3,3.1-264.3,3.1z M-264.3,3.1C-264.3,3.1-264.3,3.1-264.3,3.1C-264.3,3.1-264.3,3.1-264.3,3.1
						C-264.3,3.1-264.3,3.1-264.3,3.1C-264.3,3.1-264.3,3.1-264.3,3.1z"/>
				</g>
				<rect x="-264.3" y="3.1" style="fill:#3C3C3C;" width="0" height="0"/>
				<g>
					<path d="M-264.3,3.1L-264.3,3.1L-264.3,3.1C-264.3,3.1-264.3,3.1-264.3,3.1C-264.3,3.1-264.3,3.1-264.3,3.1
						C-264.3,3.1-264.3,3.1-264.3,3.1L-264.3,3.1C-264.3,3-264.3,3-264.3,3.1C-264.3,3-264.3,3.1-264.3,3.1
						C-264.3,3.1-264.3,3.1-264.3,3.1L-264.3,3.1L-264.3,3.1L-264.3,3.1L-264.3,3.1z"/>
					<path d="M-264.3,3.1L-264.3,3.1L-264.3,3.1C-264.3,3.1-264.3,3.1-264.3,3.1C-264.3,3.1-264.3,3.1-264.3,3.1
						C-264.3,3.1-264.3,3.1-264.3,3.1C-264.3,3.1-264.3,3.1-264.3,3.1C-264.3,3.1-264.3,3.1-264.3,3.1L-264.3,3.1
						C-264.3,3.1-264.3,3.1-264.3,3.1C-264.3,3.1-264.3,3.1-264.3,3.1C-264.3,3.1-264.3,3.1-264.3,3.1
						C-264.3,3.1-264.3,3.1-264.3,3.1L-264.3,3.1L-264.3,3.1L-264.3,3.1z"/>
				</g>
				<rect x="-264.3" y="3.1" style="fill:#3C3C3C;" width="0" height="0"/>
				<g>
					<path d="M-264.3,3.1C-264.3,3.1-264.3,3.1-264.3,3.1C-264.3,3.1-264.3,3.1-264.3,3.1C-264.3,3.1-264.3,3.1-264.3,3.1
						L-264.3,3.1L-264.3,3.1L-264.3,3.1C-264.3,3.1-264.3,3.1-264.3,3.1C-264.3,3-264.3,3-264.3,3.1C-264.3,3-264.3,3-264.3,3.1
						L-264.3,3.1C-264.3,3-264.3,3-264.3,3.1C-264.3,3-264.3,3-264.3,3.1C-264.3,3.1-264.3,3.1-264.3,3.1
						C-264.3,3.1-264.3,3.1-264.3,3.1C-264.3,3.1-264.3,3.1-264.3,3.1C-264.3,3.1-264.3,3.1-264.3,3.1L-264.3,3.1z"/>
					<path d="M-264.2,3.1C-264.2,3.1-264.2,3.1-264.2,3.1C-264.2,3.1-264.3,3.1-264.2,3.1C-264.3,3-264.2,3-264.2,3.1
						C-264.2,3-264.2,3-264.2,3.1z M-264.2,3.1C-264.2,3.1-264.2,3.1-264.2,3.1C-264.2,3.1-264.2,3.1-264.2,3.1
						C-264.2,3.1-264.2,3-264.2,3.1C-264.2,3-264.2,3.1-264.2,3.1z"/>
				</g>
			</g>
			<g>
				<rect x="-264.3" y="3.1" style="fill:#CCCDCB;" width="0" height="0"/>
				<g>
					<path d="M-264.4,3.1L-264.4,3.1L-264.4,3.1L-264.4,3.1L-264.4,3.1L-264.4,3.1L-264.4,3.1L-264.4,3.1z"/>
					<path d="M-264.3,3.1L-264.3,3.1L-264.3,3.1C-264.3,3.1-264.3,3.1-264.3,3.1C-264.3,3.1-264.3,3.1-264.3,3.1
						C-264.3,3.1-264.3,3.1-264.3,3.1C-264.3,3.1-264.3,3.1-264.3,3.1C-264.3,3.1-264.3,3.1-264.3,3.1L-264.3,3.1
						C-264.3,3.1-264.3,3.1-264.3,3.1C-264.3,3.1-264.3,3.1-264.3,3.1C-264.3,3.1-264.3,3.1-264.3,3.1
						C-264.3,3.1-264.3,3.1-264.3,3.1L-264.3,3.1L-264.3,3.1L-264.3,3.1z"/>
				</g>
				<rect x="-264.3" y="3.1" style="fill:#CCCDCB;" width="0" height="0"/>
				<g>
					<path d="M-264.4,3.1L-264.4,3.1L-264.4,3.1C-264.3,3.1-264.3,3.1-264.4,3.1C-264.3,3.1-264.3,3.1-264.4,3.1
						C-264.3,3.1-264.3,3.1-264.4,3.1L-264.4,3.1C-264.3,3.1-264.3,3.1-264.4,3.1C-264.3,3.1-264.3,3.1-264.4,3.1
						C-264.3,3.1-264.3,3.1-264.4,3.1L-264.4,3.1L-264.4,3.1L-264.4,3.1L-264.4,3.1z"/>
					<path d="M-264.3,3.1C-264.3,3.1-264.3,3.1-264.3,3.1C-264.3,3.1-264.3,3.1-264.3,3.1C-264.3,3.1-264.3,3.1-264.3,3.1
						C-264.3,3.1-264.3,3.1-264.3,3.1z M-264.3,3.1C-264.3,3.1-264.3,3.1-264.3,3.1C-264.3,3.1-264.3,3.1-264.3,3.1
						C-264.3,3.1-264.3,3.1-264.3,3.1C-264.3,3.1-264.3,3.1-264.3,3.1z"/>
				</g>
				<rect x="-264.3" y="3.1" style="fill:#CCCDCB;" width="0" height="0"/>
				<g>
					<path d="M-264.3,3.1L-264.3,3.1L-264.3,3.1C-264.3,3.1-264.3,3.1-264.3,3.1C-264.3,3.1-264.3,3.1-264.3,3.1
						C-264.3,3.1-264.3,3.1-264.3,3.1L-264.3,3.1C-264.3,3.1-264.3,3.1-264.3,3.1C-264.3,3.1-264.3,3.1-264.3,3.1
						C-264.3,3.1-264.3,3.1-264.3,3.1L-264.3,3.1L-264.3,3.1L-264.3,3.1L-264.3,3.1z"/>
					<path d="M-264.2,3.1C-264.2,3.1-264.2,3.1-264.2,3.1C-264.3,3.1-264.3,3.1-264.2,3.1C-264.3,3.1-264.3,3.1-264.2,3.1
						C-264.2,3.1-264.2,3.1-264.2,3.1z M-264.3,3.1C-264.3,3.1-264.3,3.1-264.3,3.1C-264.2,3.1-264.2,3.1-264.3,3.1
						C-264.2,3.1-264.2,3.1-264.3,3.1C-264.3,3.1-264.3,3.1-264.3,3.1z"/>
				</g>
			</g>
			<g>
				<rect x="-264.4" y="3.1" style="fill:#858685;" width="0" height="0"/>
				<g>
					<path d="M-264.4,3.1L-264.4,3.1L-264.4,3.1L-264.4,3.1L-264.4,3.1L-264.4,3.1L-264.4,3.1L-264.4,3.1z"/>
					<path d="M-264.3,3.1C-264.3,3.1-264.3,3.1-264.3,3.1C-264.3,3.1-264.4,3.1-264.3,3.1C-264.4,3.1-264.3,3.1-264.3,3.1
						C-264.3,3.1-264.3,3.1-264.3,3.1z M-264.3,3.1C-264.3,3.1-264.3,3.1-264.3,3.1C-264.3,3.1-264.3,3.1-264.3,3.1
						C-264.3,3.1-264.3,3.1-264.3,3.1C-264.3,3.1-264.3,3.1-264.3,3.1z"/>
				</g>
				<rect x="-264.3" y="3.1" style="fill:#858685;" width="0" height="0"/>
				<g>
					<path d="M-264.3,3.1L-264.3,3.1L-264.3,3.1L-264.3,3.1L-264.3,3.1L-264.3,3.1L-264.3,3.1L-264.3,3.1z"/>
					<path d="M-264.3,3.1L-264.3,3.1L-264.3,3.1C-264.3,3.1-264.3,3.1-264.3,3.1C-264.3,3.1-264.3,3.1-264.3,3.1
						C-264.3,3.1-264.3,3.1-264.3,3.1C-264.3,3.1-264.3,3.1-264.3,3.1C-264.3,3.1-264.3,3.1-264.3,3.1L-264.3,3.1
						C-264.3,3.1-264.3,3.1-264.3,3.1C-264.3,3.1-264.3,3.1-264.3,3.1C-264.3,3.1-264.3,3.1-264.3,3.1
						C-264.3,3.1-264.3,3.1-264.3,3.1L-264.3,3.1L-264.3,3.1L-264.3,3.1z"/>
				</g>
				<rect x="-264.3" y="3.1" style="fill:#858685;" width="0" height="0"/>
				<g>
					<path d="M-264.3,3.1L-264.3,3.1L-264.3,3.1L-264.3,3.1L-264.3,3.1L-264.3,3.1L-264.3,3.1L-264.3,3.1z"/>
					<path d="M-264.2,3.1C-264.2,3.1-264.2,3.1-264.2,3.1C-264.3,3.1-264.3,3.1-264.2,3.1C-264.3,3.1-264.3,3.1-264.2,3.1
						C-264.2,3.1-264.2,3.1-264.2,3.1z M-264.3,3.1C-264.3,3.1-264.3,3.1-264.3,3.1C-264.2,3.1-264.2,3.1-264.3,3.1
						C-264.2,3.1-264.2,3.1-264.3,3.1C-264.3,3.1-264.3,3.1-264.3,3.1z"/>
				</g>
			</g>
		</g>
		<g>
			<line style="fill:none;stroke:#000000;stroke-width:0.5;" x1="-264.4" y1="3.2" x2="-264.3" y2="3.2"/>
			<line style="fill:none;stroke:#000000;stroke-width:0.5;" x1="-264.3" y1="3.2" x2="-264.3" y2="3.2"/>
			<g>
				<path d="M-264.4,3.2L-264.4,3.2L-264.4,3.2C-264.4,3.1-264.4,3.1-264.4,3.2C-264.4,3.1-264.4,3.1-264.4,3.2
					C-264.4,3.1-264.4,3.1-264.4,3.2L-264.4,3.2C-264.4,3.1-264.4,3.1-264.4,3.2C-264.4,3.1-264.4,3.1-264.4,3.2
					C-264.4,3.1-264.4,3.1-264.4,3.2L-264.4,3.2L-264.4,3.2L-264.4,3.2L-264.4,3.2z"/>
				<path d="M-264.3,3.1C-264.3,3.2-264.4,3.2-264.3,3.1C-264.4,3.2-264.4,3.2-264.3,3.1C-264.4,3.1-264.4,3.1-264.3,3.1
					C-264.4,3.1-264.3,3.1-264.3,3.1z M-264.4,3.1C-264.4,3.1-264.4,3.2-264.4,3.1C-264.4,3.2-264.4,3.1-264.4,3.1
					C-264.4,3.1-264.4,3.1-264.4,3.1C-264.4,3.1-264.4,3.1-264.4,3.1z"/>
				<path d="M-264.3,3.1L-264.3,3.1L-264.3,3.1L-264.3,3.1L-264.3,3.1L-264.3,3.1L-264.3,3.1L-264.3,3.1z"/>
				<path d="M-264.3,3.2L-264.3,3.2L-264.3,3.2L-264.3,3.2L-264.3,3.2L-264.3,3.2L-264.3,3.2L-264.3,3.2L-264.3,3.2L-264.3,3.2
					L-264.3,3.2L-264.3,3.2z M-264.3,3.1L-264.3,3.1C-264.3,3.1-264.3,3.1-264.3,3.1C-264.3,3.1-264.3,3.1-264.3,3.1L-264.3,3.1
					L-264.3,3.1z"/>
			</g>
			<line style="fill:none;stroke:#000000;stroke-width:0.5;" x1="-264.3" y1="3.2" x2="-264.3" y2="3.2"/>
			<g>
				<path d="M-264.4,3.2L-264.4,3.2L-264.4,3.2C-264.4,3.1-264.4,3.1-264.4,3.2C-264.4,3.1-264.4,3.1-264.4,3.2
					C-264.4,3.1-264.4,3.1-264.4,3.2L-264.4,3.2C-264.4,3.1-264.4,3.1-264.4,3.2C-264.4,3.1-264.4,3.1-264.4,3.2
					C-264.4,3.1-264.4,3.1-264.4,3.2L-264.4,3.2L-264.4,3.2L-264.4,3.2L-264.4,3.2z"/>
				<path d="M-264.3,3.1C-264.3,3.2-264.3,3.2-264.3,3.1C-264.3,3.2-264.4,3.2-264.3,3.1C-264.4,3.1-264.3,3.1-264.3,3.1
					C-264.3,3.1-264.3,3.1-264.3,3.1z M-264.3,3.1C-264.3,3.1-264.3,3.2-264.3,3.1C-264.3,3.2-264.3,3.1-264.3,3.1
					C-264.3,3.1-264.3,3.1-264.3,3.1C-264.3,3.1-264.3,3.1-264.3,3.1z"/>
				<path d="M-264.3,3.1L-264.3,3.1L-264.3,3.1L-264.3,3.1L-264.3,3.1L-264.3,3.1L-264.3,3.1L-264.3,3.1z"/>
				<path d="M-264.2,3.1L-264.2,3.1L-264.2,3.1C-264.2,3.1-264.2,3.1-264.2,3.1C-264.2,3.1-264.2,3.1-264.2,3.1
					C-264.2,3.1-264.2,3.1-264.2,3.1C-264.2,3.2-264.2,3.2-264.2,3.1C-264.2,3.2-264.2,3.2-264.2,3.1L-264.2,3.1
					C-264.2,3.2-264.2,3.2-264.2,3.1C-264.2,3.2-264.2,3.2-264.2,3.1C-264.2,3.1-264.2,3.1-264.2,3.1
					C-264.2,3.1-264.2,3.1-264.2,3.1L-264.2,3.1L-264.2,3.1L-264.2,3.1z"/>
			</g>
			<line style="fill:none;stroke:#000000;stroke-width:0.5;" x1="-264.3" y1="3.2" x2="-264.3" y2="3.2"/>
			<g>
				<path d="M-264.4,3.2L-264.4,3.2L-264.4,3.2C-264.3,3.1-264.3,3.1-264.4,3.2C-264.3,3.1-264.3,3.1-264.4,3.2
					C-264.4,3.1-264.4,3.1-264.4,3.2L-264.4,3.2C-264.4,3.1-264.4,3.1-264.4,3.2C-264.3,3.1-264.3,3.1-264.4,3.2
					C-264.3,3.1-264.3,3.1-264.4,3.2L-264.4,3.2L-264.4,3.2L-264.4,3.2L-264.4,3.2z"/>
				<path d="M-264.3,3.1C-264.3,3.2-264.3,3.2-264.3,3.1C-264.3,3.2-264.3,3.2-264.3,3.1C-264.3,3.1-264.3,3.1-264.3,3.1
					C-264.3,3.1-264.3,3.1-264.3,3.1z M-264.3,3.1C-264.3,3.1-264.3,3.2-264.3,3.1C-264.3,3.2-264.3,3.1-264.3,3.1
					C-264.3,3.1-264.3,3.1-264.3,3.1C-264.3,3.1-264.3,3.1-264.3,3.1z"/>
				<path d="M-264.2,3.1L-264.2,3.1L-264.2,3.1L-264.2,3.1L-264.2,3.1L-264.2,3.1L-264.2,3.1L-264.2,3.1z"/>
				<path d="M-264.2,3.1C-264.2,3.1-264.2,3.1-264.2,3.1C-264.2,3.1-264.2,3.1-264.2,3.1C-264.2,3.1-264.2,3.1-264.2,3.1
					C-264.2,3.1-264.2,3.1-264.2,3.1C-264.2,3.2-264.2,3.2-264.2,3.1C-264.2,3.2-264.2,3.2-264.2,3.1
					C-264.2,3.1-264.2,3.1-264.2,3.1C-264.2,3.1-264.2,3.1-264.2,3.1C-264.2,3.1-264.2,3.1-264.2,3.1L-264.2,3.1z M-264.2,3.1
					C-264.2,3.1-264.2,3.1-264.2,3.1C-264.2,3.1-264.2,3.1-264.2,3.1C-264.2,3.1-264.2,3.1-264.2,3.1
					C-264.2,3.2-264.2,3.2-264.2,3.1C-264.2,3.2-264.2,3.2-264.2,3.1z"/>
			</g>
		</g>
		<g>
			<line style="fill:none;stroke:#000000;stroke-width:0.5;" x1="-264.4" y1="3.2" x2="-264.4" y2="3.1"/>
			<line style="fill:none;stroke:#000000;stroke-width:0.5;" x1="-264.4" y1="3.2" x2="-264.4" y2="3.2"/>
			<g>
				<path d="M-264.4,3.1C-264.4,3.1-264.4,3.2-264.4,3.1C-264.4,3.2-264.4,3.1-264.4,3.1C-264.4,3.1-264.4,3.1-264.4,3.1
					C-264.4,3.1-264.4,3.1-264.4,3.1z M-264.4,3.1C-264.4,3.1-264.4,3.2-264.4,3.1C-264.4,3.2-264.4,3.1-264.4,3.1
					C-264.4,3.1-264.4,3.1-264.4,3.1C-264.4,3.1-264.4,3.1-264.4,3.1z"/>
			</g>
			<line style="fill:none;stroke:#000000;stroke-width:0.5;" x1="-264.4" y1="3.1" x2="-264.4" y2="3.1"/>
			<g>
				<path d="M-264.4,3.1L-264.4,3.1L-264.4,3.1L-264.4,3.1L-264.4,3.1L-264.4,3.1L-264.4,3.1L-264.4,3.1z"/>
				<path d="M-264.4,3.1C-264.4,3.1-264.4,3.1-264.4,3.1C-264.4,3.1-264.4,3.1-264.4,3.1C-264.4,3.1-264.4,3.1-264.4,3.1
					C-264.4,3.1-264.4,3.1-264.4,3.1z M-264.4,3.1C-264.4,3.1-264.4,3.1-264.4,3.1C-264.4,3.1-264.4,3.1-264.4,3.1
					C-264.4,3.1-264.4,3.1-264.4,3.1C-264.4,3.1-264.4,3.1-264.4,3.1z"/>
			</g>
			<line style="fill:none;stroke:#000000;stroke-width:0.5;" x1="-264.4" y1="3.1" x2="-264.4" y2="3.1"/>
			<g>
				<path d="M-264.5,3.1L-264.5,3.1L-264.5,3.1C-264.4,3.1-264.4,3.1-264.5,3.1C-264.4,3.1-264.4,3.1-264.5,3.1
					C-264.5,3.1-264.5,3.1-264.5,3.1L-264.5,3.1C-264.5,3.1-264.4,3.1-264.5,3.1C-264.4,3.1-264.4,3.1-264.5,3.1
					C-264.4,3.1-264.4,3.1-264.5,3.1L-264.5,3.1L-264.5,3.1L-264.5,3.1L-264.5,3.1z"/>
				<path d="M-264.4,3.1C-264.4,3.1-264.4,3.1-264.4,3.1C-264.4,3.1-264.4,3.1-264.4,3.1C-264.4,3.1-264.4,3.1-264.4,3.1
					C-264.4,3.1-264.4,3.1-264.4,3.1z M-264.4,3.1C-264.4,3.1-264.4,3.1-264.4,3.1C-264.4,3.1-264.4,3.1-264.4,3.1
					C-264.4,3.1-264.4,3.1-264.4,3.1C-264.4,3.1-264.4,3.1-264.4,3.1z"/>
			</g>
			<line style="fill:none;stroke:#000000;stroke-width:0.5;" x1="-264.4" y1="3.1" x2="-264.4" y2="3.1"/>
			<g>
				<path d="M-264.5,3.1C-264.5,3.1-264.5,3.1-264.5,3.1C-264.4,3.1-264.4,3.1-264.5,3.1C-264.4,3.1-264.4,3.1-264.5,3.1L-264.5,3.1
					L-264.5,3.1L-264.5,3.1C-264.4,3.1-264.4,3.1-264.5,3.1C-264.4,3.1-264.4,3-264.5,3.1C-264.5,3-264.5,3.1-264.5,3.1L-264.5,3.1
					C-264.5,3-264.5,3-264.5,3.1C-264.4,3-264.4,3-264.5,3.1C-264.4,3.1-264.4,3.1-264.5,3.1C-264.4,3.1-264.4,3.1-264.5,3.1
					C-264.4,3.1-264.4,3.1-264.5,3.1C-264.5,3.1-264.5,3.1-264.5,3.1L-264.5,3.1z"/>
				<path d="M-264.4,3.1C-264.4,3.1-264.4,3.1-264.4,3.1C-264.4,3.1-264.4,3.1-264.4,3.1C-264.4,3.1-264.4,3-264.4,3.1
					C-264.4,3-264.4,3.1-264.4,3.1z M-264.4,3.1C-264.4,3.1-264.4,3.1-264.4,3.1C-264.4,3.1-264.4,3.1-264.4,3.1
					C-264.4,3.1-264.4,3-264.4,3.1C-264.4,3-264.4,3.1-264.4,3.1z"/>
			</g>
		</g>
	</g>
</g>
<g>
	<path style="fill:#B74A26;stroke:#FFF0A5;stroke-width:4;stroke-miterlimit:10;" d="M-402.1,102.1h-7.3c-6.6,0-12-5.4-12-12V58.3
		c0-6.6,5.4-12,12-12h7.3c6.6,0,12,5.4,12,12v31.8C-390.1,96.7-395.5,102.1-402.1,102.1z"/>
	<g>
		<path style="fill:#FFF0A5;" d="M-390.1,54.3c0-4.4-3.3-8-7.4-8H-414c-4.1,0-7.4,3.6-7.4,8v0L-390.1,54.3L-390.1,54.3z"/>
		<path style="fill:#FFF0A5;" d="M-421.4,94.1c0,4.4,3.3,8,7.4,8h16.4c4.1,0,7.4-3.6,7.4-8v-3h-31.3V94.1z"/>
	</g>
	<ellipse style="fill:#8E2C1D;" cx="-405.8" cy="97.4" rx="3.4" ry="3.7"/>
	<path style="fill:#8E2C1D;" d="M-398.2,50.3h-15.2c-0.4,0-0.8-0.4-0.8-0.8v0c0-0.4,0.4-0.8,0.8-0.8h15.2c0.4,0,0.8,0.4,0.8,0.8v0
		C-397.4,50-397.7,50.3-398.2,50.3z"/>
</g>
<polyline style="fill:none;stroke:#FFF0A5;stroke-width:5;stroke-linecap:round;stroke-linejoin:round;stroke-miterlimit:10;" points="
	-179.3,86 -168.1,97.5 -137.5,66.4 "/>
<g>
	<path style="fill:#B74A26;" d="M74.4,105.5l5.5-12.7l27.8-2.8l5.4-10l-0.3-33.4l-4.3-6.6c0,0,12.8,10.7,23.1,20.2
		c-5.4-27.9-30-49-59.5-49c-33.5,0-60.6,27.1-60.6,60.6c0,33.5,27.1,60.6,60.6,60.6c0.2,0,0.4,0,0.6,0L46,107L74.4,105.5z"/>
	<path style="fill:#8F3919;" d="M132.6,71.8c0-3.1-0.2-6.1-0.7-9.1c-0.1-0.8-0.3-1.7-0.4-2.5C121.2,50.7,108.4,40,108.4,40l4.3,6.6
		L113,80l-5.4,10l-27.8,2.8l-5.5,12.7L46,107l26.6,25.4c8.9-0.1,17.3-2.1,24.9-5.6C118.2,117.1,132.6,96.2,132.6,71.8z"/>
</g>
<path style="fill:none;stroke:#FFF0A5;stroke-width:3;stroke-miterlimit:10;" d="M99.6,91.7H47.2c-6.6,0-12-5.4-12-12V49.1
	c0-6.6,5.4-12,12-12h52.4c6.6,0,12,5.4,12,12v30.6C111.6,86.3,106.2,91.7,99.6,91.7z"/>
<polygon style="fill:#FFF0A5;stroke:#FFF0A5;stroke-width:3;stroke-linecap:round;stroke-linejoin:round;stroke-miterlimit:10;" points="
	66.4,92.5 66.4,102.3 46.6,106.6 100.3,106.6 81.1,102.1 80.9,92.5 "/>
<ellipse transform="matrix(0.8094 -0.5873 0.5873 0.8094 -16.042 46.992)" style="fill:#FFF0A5;stroke:#B74A26;stroke-width:2;stroke-miterlimit:10;" cx="64.4" cy="48.2" rx="4.2" ry="25.2"/>
<path style="fill:#FFF0A5;" d="M78.6,69.7c0,0-3.2,8.5,7.8,9.9c11,1.4,10.8,0,10.8,0s-7.3-0.4-9.1-2.7c-1.8-2.3-0.9-5.4-2-7.3
	C85,67.9,80.6,66.3,78.6,69.7z"/>
<g>
</g>
<g>
</g>
<g>
</g>
<g>
</g>
<g>
</g>
<g>
</g>
</svg>
