<?xml version="1.0" encoding="utf-8"?>
<!-- Generator: Adobe Illustrator 19.1.0, SVG Export Plug-In . SVG Version: 6.00 Build 0)  -->
<svg version="1.1" id="Layer_1" xmlns="http://www.w3.org/2000/svg" xmlns:xlink="http://www.w3.org/1999/xlink" x="0px" y="0px"
	 width="144px" height="144px" viewBox="0 0 144 144" style="enable-background:new 0 0 144 144;" xml:space="preserve">
<g>
	<path style="fill:#B74A26;" d="M104.4,109.5l-1.9-72.2l32.1,25.6c-4.4-29.2-29.5-51.5-59.9-51.5c-33.5,0-60.6,27.1-60.6,60.6
		c0,33.5,27.1,60.6,60.6,60.6c9.1,0,17.8-2,25.5-5.6c-33.1-1.3-52-12.1-54.1-13.8C40.4,108.6,104.4,109.5,104.4,109.5z"/>
	<path style="fill:#8F3919;" d="M135.3,72c0-3.1-0.2-6.1-0.7-9.1l-32.1-25.6l1.9,72.2c0,0-64.1-0.9-58.3,3.7
		c2.1,1.7,21,12.4,54.1,13.8C121,117.3,135.3,96.3,135.3,72z"/>
</g>
<g>
	<path style="fill:#B74A26;stroke:#FFF0A5;stroke-width:4.9815;stroke-miterlimit:10;" d="M95.5,113.2H54c-6.6,0-12-5.4-12-12V49.8
		c0-6.6,5.4-12,12-12h41.5c6.6,0,12,5.4,12,12v51.4C107.5,107.8,102.1,113.2,95.5,113.2z"/>
</g>
<g>
	<path style="fill:#FFF0A5;" d="M107.5,48.9c0-6.4-4.9-11.6-10.8-11.6H52.8c-5.9,0-10.8,5.2-10.8,11.6v4.5h65.5V48.9z"/>
</g>
<rect x="48.7" y="61.7" style="fill:#FFF0A5;" width="11.6" height="10.1"/>
<rect x="62.3" y="61.7" style="fill:#FFF0A5;" width="11.6" height="10.1"/>
<rect x="76" y="61.7" style="fill:#FFF0A5;" width="11.6" height="10.1"/>
<rect x="90.2" y="61.7" style="fill:#FFF0A5;" width="11.6" height="10.1"/>
<rect x="48.7" y="77.2" style="fill:#FFF0A5;" width="11.6" height="10.1"/>
<rect x="62.3" y="77.2" style="fill:#FFF0A5;" width="11.6" height="10.1"/>
<rect x="76" y="77.2" style="fill:#FFF0A5;" width="11.6" height="10.1"/>
<rect x="90.2" y="77.2" style="fill:#FFF0A5;" width="11.6" height="10.1"/>
<rect x="48.7" y="92.6" style="fill:#FFF0A5;" width="11.6" height="10.1"/>
<rect x="62.3" y="92.6" style="fill:#FFF0A5;" width="11.6" height="10.1"/>
<rect x="76" y="92.6" style="fill:#FFF0A5;" width="11.6" height="10.1"/>
<rect x="90.2" y="92.6" style="fill:#FFF0A5;" width="11.6" height="10.1"/>
<path style="fill:#FFF0A5;stroke:#B74A26;stroke-width:3;stroke-miterlimit:10;" d="M60.9,44.8L60.9,44.8c-1.6,0-2.9-1.3-2.9-2.9
	V31.5c0-1.6,1.3-2.9,2.9-2.9h0c1.6,0,2.9,1.3,2.9,2.9v10.4C63.8,43.5,62.5,44.8,60.9,44.8z"/>
<path style="fill:#FFF0A5;stroke:#B74A26;stroke-width:3;stroke-miterlimit:10;" d="M91.1,44L91.1,44c-1.6,0-2.9-1.3-2.9-2.9V30.7
	c0-1.6,1.3-2.9,2.9-2.9h0c1.6,0,2.9,1.3,2.9,2.9v10.4C94,42.7,92.7,44,91.1,44z"/>
</svg>
