<svg xmlns="http://www.w3.org/2000/svg" width="144" height="144" viewBox="0 0 144 144"><circle cx="-576" cy="67.8" r="60.6" fill="#B74A26"/><path fill="#468A67" d="M-515.4-72.6h51.6v57.5h-51.6z"/><path fill="#FFF0A5" d="M-437.1-90.9h54.9v75.9h-54.9z"/><path fill="#FBAF3D" d="M-363.3-101.7h54.6v67.5h-54.6z"/><path fill="#B74A26" d="M-291.3-101.7h50v77.5h-50z"/><path fill="#8E2C1D" d="M-219.3-68h29.5v58.8h-29.5z"/><path d="M-553.2 29.5l33.9 28.2c2.6 2.2 4.1 5.4 4 8.8-.4 10.5-1.6 34.4-28.1 52.3-37.1-1.5-50-9-52.3-10.9-5.8-4.6 42.6-6.6 42.6-6.6l-.1-71.8z" fill="#8F3919"/><path d="M-111.6 109.5l-1.9-72.2 32.1 25.6c-4.4-29.2-29.5-51.5-59.9-51.5-33.5 0-60.6 27.1-60.6 60.6s27.1 60.6 60.6 60.6c9.1 0 17.8-2 25.5-5.6-33.1-1.3-52-12.1-54.1-13.8-5.7-4.6 58.3-3.7 58.3-3.7z" fill="#B74A26"/><path d="M-80.7 72c0-3.1-.2-6.1-.7-9.1l-32.1-25.6 1.9 72.2s-64.1-.9-58.3 3.7c2.1 1.7 21 12.4 54.1 13.8 20.8-9.7 35.1-30.7 35.1-55z" fill="#8F3919"/><path d="M-564.5 109.6h-22.9c-6.6 0-12-5.4-12-12v-59.7c0-6.6 5.4-12 12-12h22.9c6.6 0 12 5.4 12 12v59.7c0 6.6-5.4 12-12 12z" stroke="#FFF0A5" stroke-width="4" stroke-miterlimit="10" fill="none"/><path d="M-552.5 37.9c0-6.6-5-12-11.2-12h-24.6c-6.1 0-11.2 5.4-11.2 12h47zm-47 59.7c0 6.6 5 12 11.2 12h24.6c6.1 0 11.2-5.4 11.2-12v-4.5h-46.9v4.5z" fill="#FFF0A5"/><ellipse cx="-576" cy="102.5" rx="5.1" ry="5.5" fill="#8E2C1D"/><path d="M-564.6 31.9h-22.8c-.7 0-1.2-.5-1.2-1.2s.5-1.2 1.2-1.2h22.8c.7 0 1.2.5 1.2 1.2s-.5 1.2-1.2 1.2z" fill="#8E2C1D"/><path d="M-562.9 48.2h-26.3c-.6 0-1.1-.5-1.1-1.1 0-.6.5-1.1 1.1-1.1h26.3c.6 0 1.1.5 1.1 1.1 0 .6-.5 1.1-1.1 1.1zm0 4.1h-26.3c-.6 0-1.1-.5-1.1-1.1 0-.6.5-1.1 1.1-1.1h26.3c.6 0 1.1.5 1.1 1.1 0 .6-.5 1.1-1.1 1.1z" fill="#FFF0A5"/><path d="M-385.4 62.3l42.4-30 42.8 30.1c-4.6-28.9-29.6-51-59.8-51-33.5 0-60.6 27.1-60.6 60.6s27.1 60.6 60.6 60.6c15.5 0 29.6-5.8 40.3-15.4-23.9-3.1-58.6-10.9-58.6-10.9l42.4-30 30.7 21.7c2.9-6 4.8-12.6 5.5-19.5-25.2-5.1-85.7-16.2-85.7-16.2z" fill="#B74A26"/><path d="M-385.4 62.3s60.5 11.1 85.6 16.2c.2-2.1.3-4.3.3-6.5 0-3.3-.3-6.5-.8-9.6l-42.7-30.1-42.4 30zm7.1 44s34.8 7.8 58.6 10.9c6-5.4 10.9-11.9 14.4-19.3l-30.7-21.7-42.3 30.1z" fill="#8F3919"/><path d="M-574.9 56.6h-14.2c-.6 0-1.1-.5-1.1-1.1 0-.6.5-1.1 1.1-1.1h14.2c.6 0 1.1.5 1.1 1.1-.1.6-.6 1.1-1.1 1.1z" fill="#FFF0A5"/><path d="M-329.7 66.4l-6-11.8c.6-1.4.9-2.9.9-4.5v-5.9c0-6.6-5.4-12-12-12h-31.4c-6.6 0-12 5.4-12 12v5.9c0 6.6 5.4 12 12 12h31.4c1.3 0 2.5-.2 3.6-.6l13.5 4.9zm-57.4 44.3l6-11.8c-.6-1.4-.9-2.9-.9-4.5v-5.9c0-6.6 5.4-12 12-12h31.4c6.6 0 12 5.4 12 12v5.9c0 6.6-5.4 12-12 12h-31.4c-1.3 0-2.5-.2-3.6-.6l-13.5 4.9z" fill="#B74A26" stroke="#FFF0A5" stroke-width="3" stroke-linejoin="round" stroke-miterlimit="10"/><path d="M-348.3 49.3h-33.6c-.6 0-1.1-.5-1.1-1.1 0-.6.5-1.1 1.1-1.1h33.6c.6 0 1.1.5 1.1 1.1 0 .7-.5 1.1-1.1 1.1zm0 4.1h-33.6c-.6 0-1.1-.5-1.1-1.1 0-.6.5-1.1 1.1-1.1h33.6c.6 0 1.1.5 1.1 1.1 0 .7-.5 1.1-1.1 1.1zm11.1 32.9h-33.6c-.6 0-1.1-.5-1.1-1.1 0-.6.5-1.1 1.1-1.1h33.6c.6 0 1.1.5 1.1 1.1 0 .7-.5 1.1-1.1 1.1zm0 4.1h-33.6c-.6 0-1.1-.5-1.1-1.1 0-.6.5-1.1 1.1-1.1h33.6c.6 0 1.1.5 1.1 1.1 0 .6-.5 1.1-1.1 1.1zm-16.5 4.4h-17.1c-.6 0-1.1-.5-1.1-1.1 0-.6.5-1.1 1.1-1.1h17.1c.6 0 1.1.5 1.1 1.1 0 .6-.5 1.1-1.1 1.1z" fill="#FFF0A5"/><path d="M-120.5 113.2h-41.5c-6.6 0-12-5.4-12-12v-51.4c0-6.6 5.4-12 12-12h41.5c6.6 0 12 5.4 12 12v51.4c0 6.6-5.4 12-12 12z" fill="#B74A26" stroke="#FFF0A5" stroke-width="4.981" stroke-miterlimit="10"/><path d="M-108.5 48.9c0-6.4-4.9-11.6-10.8-11.6h-43.9c-5.9 0-10.8 5.2-10.8 11.6v4.5h65.5v-4.5zm-58.8 12.8h11.6v10.1h-11.6zm13.6 0h11.6v10.1h-11.6zm13.7 0h11.6v10.1h-11.6zm14.2 0h11.6v10.1h-11.6zm-41.5 15.5h11.6v10.1h-11.6zm13.6 0h11.6v10.1h-11.6zm13.7 0h11.6v10.1h-11.6zm14.2 0h11.6v10.1h-11.6zm-41.5 15.4h11.6v10.1h-11.6zm13.6 0h11.6v10.1h-11.6zm13.7 0h11.6v10.1h-11.6zm14.2 0h11.6v10.1h-11.6z" fill="#FFF0A5"/><path d="M-155.1 44.8c-1.6 0-2.9-1.3-2.9-2.9v-10.4c0-1.6 1.3-2.9 2.9-2.9 1.6 0 2.9 1.3 2.9 2.9v10.4c0 1.6-1.3 2.9-2.9 2.9zm30.2-.8c-1.6 0-2.9-1.3-2.9-2.9v-10.4c0-1.6 1.3-2.9 2.9-2.9 1.6 0 2.9 1.3 2.9 2.9v10.4c0 1.6-1.3 2.9-2.9 2.9z" fill="#FFF0A5" stroke="#B74A26" stroke-width="3" stroke-miterlimit="10"/><path d="M77.7 97.7l5.5-12.7 27.8-2.8 5.4-10-.3-33.4-4.3-6.6 14.9 9.2c-9.9-20.2-30.7-34.2-54.7-34.2-33.5 0-60.6 27.1-60.6 60.6s27.1 60.6 60.6 60.6c3.2 0 6.4-.3 9.5-.8l-32.2-28.4 28.4-1.5z" fill="#B74A26"/><path d="M132.6 67.8c0-3.1-.2-6.1-.7-9.1-.9-6.1-2.7-11.9-5.3-17.3l-14.9-9.2 4.3 6.6.3 33.4-5.4 10-27.7 2.8-5.5 12.7-28.4 1.5 32.2 28.4c5.6-.9 11-2.6 16-4.9 20.7-9.6 35.1-30.6 35.1-54.9z" fill="#8F3919"/><path d="M102.6 83.6h-52.4c-6.6 0-12-5.4-12-12v-30.6c0-6.6 5.4-12 12-12h52.4c6.6 0 12 5.4 12 12v30.6c0 6.6-5.4 12-12 12z" stroke="#FFF0A5" stroke-width="3" stroke-miterlimit="10" fill="none"/><path fill="#FFF0A5" stroke="#FFF0A5" stroke-width="3" stroke-linecap="round" stroke-linejoin="round" stroke-miterlimit="10" d="M69.4 84.4v9.8l-19.9 4.3h53.7l-19.2-4.5-.2-9.6z"/><path d="M182 3.2h.1m-.1-.1h.1m-.1 0h.1m-.1 0h.1" stroke="#000" stroke-width=".5" fill="none"/><path d="M182 3.1zm.1 0zm0 0zm0 0zm0 0zm0 0zm.1 0c-.1-.1 0-.1 0 0zm0 0zm-.2 0zm.1 0zm-.1 0zm.1 0zm0 0zm0 0zm.1 0zm-.1 0zm-.1 0zm.1 0zm0 0zm0 0zm0 0zm0 0zm.1 0zm-.1 0z"/><path stroke="#000" stroke-width=".5" d="M182 3.2h.1m0 0" fill="none"/><path d="M182 3.2zm.1-.1c0 .1-.1.1 0 0zm-.1 0zm.1 0zm0 .1zm0-.1z"/><path stroke="#000" stroke-width=".5" d="M182.1 3.2" fill="none"/><path d="M182 3.2zm.1-.1c0 .1-.1.1 0 0zm0 0zm0 0zm.1 0z"/><path stroke="#000" stroke-width=".5" d="M182.1 3.2" fill="none"/><path d="M182 3.2zm.1-.1zm0 0zm.1 0zm0 0zm0 0z"/><path stroke="#000" stroke-width=".5" d="M182 3.2v-.1m0 .1" fill="none"/><path d="M182 3.1zm0 0z"/><path stroke="#000" stroke-width=".5" d="M182 3.1" fill="none"/><path d="M182 3.1zm0 0zm0 0z"/><path stroke="#000" stroke-width=".5" d="M182 3.1" fill="none"/><path d="M181.9 3.1zm.1 0zm0 0z"/><path stroke="#000" stroke-width=".5" d="M182 3.1" fill="none"/><path d="M181.9 3.1c.1 0 .1-.1 0 0zm.1 0zm0 0z"/><path d="M44.3 102.1h-7.3c-6.6 0-12-5.4-12-12v-31.8c0-6.6 5.4-12 12-12h7.3c6.6 0 12 5.4 12 12v31.8c0 6.6-5.4 12-12 12z" fill="#B74A26" stroke="#FFF0A5" stroke-width="4" stroke-miterlimit="10"/><path d="M56.3 54.3c0-4.4-3.3-8-7.4-8h-16.5c-4.1 0-7.4 3.6-7.4 8h31.3zm-31.3 39.8c0 4.4 3.3 8 7.4 8h16.4c4.1 0 7.4-3.6 7.4-8v-3h-31.2v3z" fill="#FFF0A5"/><ellipse cx="40.6" cy="97.4" rx="3.4" ry="3.7" fill="#8E2C1D"/><path d="M48.2 50.3h-15.2c-.4 0-.8-.4-.8-.8s.4-.8.8-.8h15.2c.4 0 .8.4.8.8 0 .5-.3.8-.8.8z" fill="#8E2C1D"/></svg>