<svg xmlns="http://www.w3.org/2000/svg" width="144" height="144" viewBox="0 0 144 144"><path d="M46.6 62.3l42.4-30 42.8 30.1c-4.6-28.9-29.6-51-59.8-51-33.5 0-60.6 27.1-60.6 60.6s27.1 60.6 60.6 60.6c15.5 0 29.6-5.8 40.3-15.4-23.9-3.1-58.6-10.9-58.6-10.9l42.4-30 30.7 21.7c2.9-6 4.8-12.6 5.5-19.5-25.2-5.1-85.7-16.2-85.7-16.2z" fill="#B74A26"/><path d="M46.6 62.3s60.5 11.1 85.6 16.2c.2-2.1.3-4.3.3-6.5 0-3.3-.3-6.5-.8-9.6l-42.7-30.1-42.4 30zM53.7 106.3s34.8 7.8 58.6 10.9c6-5.4 10.9-11.9 14.4-19.3l-30.6-21.7-42.4 30.1z" fill="#8F3919"/><path d="M102.3 66.4l-6-11.8c.6-1.4.9-2.9.9-4.5v-5.9c0-6.6-5.4-12-12-12h-31.5c-6.6 0-12 5.4-12 12v5.9c0 6.6 5.4 12 12 12h31.4c1.3 0 2.5-.2 3.6-.6l13.6 4.9zM44.9 110.7l6-11.8c-.6-1.4-.9-2.9-.9-4.5v-5.9c0-6.6 5.4-12 12-12h31.4c6.6 0 12 5.4 12 12v5.9c0 6.6-5.4 12-12 12h-31.4c-1.3 0-2.5-.2-3.6-.6l-13.5 4.9z" fill="#B74A26" stroke="#FFF0A5" stroke-width="3" stroke-linejoin="round" stroke-miterlimit="10"/><path d="M83.7 49.3h-33.6c-.6 0-1.1-.5-1.1-1.1 0-.6.5-1.1 1.1-1.1h33.6c.6 0 1.1.5 1.1 1.1 0 .7-.5 1.1-1.1 1.1zM83.7 53.4h-33.6c-.6 0-1.1-.5-1.1-1.1 0-.6.5-1.1 1.1-1.1h33.6c.6 0 1.1.5 1.1 1.1 0 .7-.5 1.1-1.1 1.1zM94.8 86.3h-33.6c-.6 0-1.1-.5-1.1-1.1 0-.6.5-1.1 1.1-1.1h33.6c.6 0 1.1.5 1.1 1.1 0 .7-.5 1.1-1.1 1.1zM94.8 90.4h-33.6c-.6 0-1.1-.5-1.1-1.1 0-.6.5-1.1 1.1-1.1h33.6c.6 0 1.1.5 1.1 1.1 0 .6-.5 1.1-1.1 1.1zM78.3 94.8h-17.1c-.6 0-1.1-.5-1.1-1.1 0-.6.5-1.1 1.1-1.1h17.1c.6 0 1.1.5 1.1 1.1 0 .6-.5 1.1-1.1 1.1z" fill="#FFF0A5"/></svg>