<?xml version="1.0" encoding="utf-8"?>
<!-- Generator: Adobe Illustrator 19.1.0, SVG Export Plug-In . SVG Version: 6.00 Build 0)  -->
<svg version="1.1" id="Layer_1" xmlns="http://www.w3.org/2000/svg" xmlns:xlink="http://www.w3.org/1999/xlink" x="0px" y="0px"
	 width="144px" height="144px" viewBox="0 0 144 144" style="enable-background:new 0 0 144 144;" xml:space="preserve">
<circle style="fill:#B74A26;" cx="-792" cy="67.8" r="60.6"/>
<rect x="-731.4" y="-72.6" style="fill:#468A67;" width="51.6" height="57.5"/>
<rect x="-653.1" y="-90.9" style="fill:#FFF0A5;" width="54.9" height="75.9"/>
<rect x="-579.3" y="-101.7" style="fill:#FBAF3D;" width="54.6" height="67.5"/>
<rect x="-507.3" y="-101.7" style="fill:#B74A26;" width="50" height="77.5"/>
<rect x="-435.3" y="-68" style="fill:#8E2C1D;" width="29.5" height="58.8"/>
<path style="fill:#8F3919;" d="M-769.2,29.5l33.9,28.2c2.6,2.2,4.1,5.4,4,8.8c-0.4,10.5-1.6,34.4-28.1,52.3
	c-37.1-1.5-50-9-52.3-10.9c-5.8-4.6,42.6-6.6,42.6-6.6L-769.2,29.5z"/>
<g>
	<path style="fill:#B74A26;" d="M-327.6,109.5l-1.9-72.2l32.1,25.6c-4.4-29.2-29.5-51.5-59.9-51.5c-33.5,0-60.6,27.1-60.6,60.6
		c0,33.5,27.1,60.6,60.6,60.6c9.1,0,17.8-2,25.5-5.6c-33.1-1.3-52-12.1-54.1-13.8C-391.6,108.6-327.6,109.5-327.6,109.5z"/>
	<path style="fill:#8F3919;" d="M-296.7,72c0-3.1-0.2-6.1-0.7-9.1l-32.1-25.6l1.9,72.2c0,0-64.1-0.9-58.3,3.7
		c2.1,1.7,21,12.4,54.1,13.8C-311,117.3-296.7,96.3-296.7,72z"/>
</g>
<g>
	<path style="fill:none;stroke:#FFF0A5;stroke-width:4;stroke-miterlimit:10;" d="M-780.5,109.6h-22.9c-6.6,0-12-5.4-12-12V37.9
		c0-6.6,5.4-12,12-12h22.9c6.6,0,12,5.4,12,12v59.7C-768.5,104.2-773.9,109.6-780.5,109.6z"/>
	<g>
		<path style="fill:#FFF0A5;" d="M-768.5,37.9c0-6.6-5-12-11.2-12h-24.6c-6.1,0-11.2,5.4-11.2,12v0L-768.5,37.9L-768.5,37.9z"/>
		<path style="fill:#FFF0A5;" d="M-815.5,97.6c0,6.6,5,12,11.2,12h24.6c6.1,0,11.2-5.4,11.2-12v-4.5h-46.9V97.6z"/>
	</g>
	<ellipse style="fill:#8E2C1D;" cx="-792" cy="102.5" rx="5.1" ry="5.5"/>
	<path style="fill:#8E2C1D;" d="M-780.6,31.9h-22.8c-0.7,0-1.2-0.5-1.2-1.2v0c0-0.7,0.5-1.2,1.2-1.2h22.8c0.7,0,1.2,0.5,1.2,1.2v0
		C-779.4,31.4-779.9,31.9-780.6,31.9z"/>
</g>
<path style="fill:#FFF0A5;" d="M-778.9,48.2h-26.3c-0.6,0-1.1-0.5-1.1-1.1v0c0-0.6,0.5-1.1,1.1-1.1h26.3c0.6,0,1.1,0.5,1.1,1.1v0
	C-777.8,47.7-778.3,48.2-778.9,48.2z"/>
<path style="fill:#FFF0A5;" d="M-778.9,52.3h-26.3c-0.6,0-1.1-0.5-1.1-1.1v0c0-0.6,0.5-1.1,1.1-1.1h26.3c0.6,0,1.1,0.5,1.1,1.1v0
	C-777.8,51.8-778.3,52.3-778.9,52.3z"/>
<g>
	<path style="fill:#B74A26;" d="M-601.4,62.3l42.4-30l42.8,30.1c-4.6-28.9-29.6-51-59.8-51c-33.5,0-60.6,27.1-60.6,60.6
		c0,33.5,27.1,60.6,60.6,60.6c15.5,0,29.6-5.8,40.3-15.4c-23.9-3.1-58.6-10.9-58.6-10.9l42.4-30l30.7,21.7c2.9-6,4.8-12.6,5.5-19.5
		C-540.9,73.4-601.4,62.3-601.4,62.3z"/>
	<path style="fill:#8F3919;" d="M-601.4,62.3c0,0,60.5,11.1,85.6,16.2c0.2-2.1,0.3-4.3,0.3-6.5c0-3.3-0.3-6.5-0.8-9.6L-559,32.3
		L-601.4,62.3z"/>
	<path style="fill:#8F3919;" d="M-594.3,106.3c0,0,34.8,7.8,58.6,10.9c6-5.4,10.9-11.9,14.4-19.3l-30.7-21.7L-594.3,106.3z"/>
</g>
<path style="fill:#FFF0A5;" d="M-790.9,56.6h-14.2c-0.6,0-1.1-0.5-1.1-1.1v0c0-0.6,0.5-1.1,1.1-1.1h14.2c0.6,0,1.1,0.5,1.1,1.1v0
	C-789.9,56.1-790.4,56.6-790.9,56.6z"/>
<path style="fill:#B74A26;stroke:#FFF0A5;stroke-width:3;stroke-linejoin:round;stroke-miterlimit:10;" d="M-545.7,66.4l-6-11.8
	c0.6-1.4,0.9-2.9,0.9-4.5v-5.9c0-6.6-5.4-12-12-12h-31.4c-6.6,0-12,5.4-12,12v5.9c0,6.6,5.4,12,12,12h31.4c1.3,0,2.5-0.2,3.6-0.6
	L-545.7,66.4z"/>
<path style="fill:#B74A26;stroke:#FFF0A5;stroke-width:3;stroke-linejoin:round;stroke-miterlimit:10;" d="M-603.1,110.7l6-11.8
	c-0.6-1.4-0.9-2.9-0.9-4.5v-5.9c0-6.6,5.4-12,12-12h31.4c6.6,0,12,5.4,12,12v5.9c0,6.6-5.4,12-12,12H-586c-1.3,0-2.5-0.2-3.6-0.6
	L-603.1,110.7z"/>
<path style="fill:#FFF0A5;" d="M-564.3,49.3h-33.6c-0.6,0-1.1-0.5-1.1-1.1v0c0-0.6,0.5-1.1,1.1-1.1h33.6c0.6,0,1.1,0.5,1.1,1.1v0
	C-563.2,48.9-563.7,49.3-564.3,49.3z"/>
<path style="fill:#FFF0A5;" d="M-564.3,53.4h-33.6c-0.6,0-1.1-0.5-1.1-1.1v0c0-0.6,0.5-1.1,1.1-1.1h33.6c0.6,0,1.1,0.5,1.1,1.1v0
	C-563.2,53-563.7,53.4-564.3,53.4z"/>
<path style="fill:#FFF0A5;" d="M-553.2,86.3h-33.6c-0.6,0-1.1-0.5-1.1-1.1l0,0c0-0.6,0.5-1.1,1.1-1.1h33.6c0.6,0,1.1,0.5,1.1,1.1
	l0,0C-552.1,85.9-552.6,86.3-553.2,86.3z"/>
<path style="fill:#FFF0A5;" d="M-553.2,90.4h-33.6c-0.6,0-1.1-0.5-1.1-1.1v0c0-0.6,0.5-1.1,1.1-1.1h33.6c0.6,0,1.1,0.5,1.1,1.1v0
	C-552.1,89.9-552.6,90.4-553.2,90.4z"/>
<path style="fill:#FFF0A5;" d="M-569.7,94.8h-17.1c-0.6,0-1.1-0.5-1.1-1.1v0c0-0.6,0.5-1.1,1.1-1.1h17.1c0.6,0,1.1,0.5,1.1,1.1v0
	C-568.6,94.3-569.1,94.8-569.7,94.8z"/>
<g>
	<path style="fill:#B74A26;stroke:#FFF0A5;stroke-width:4.9815;stroke-miterlimit:10;" d="M-336.5,113.2H-378c-6.6,0-12-5.4-12-12
		V49.8c0-6.6,5.4-12,12-12h41.5c6.6,0,12,5.4,12,12v51.4C-324.5,107.8-329.9,113.2-336.5,113.2z"/>
</g>
<g>
	<path style="fill:#FFF0A5;" d="M-324.5,48.9c0-6.4-4.9-11.6-10.8-11.6h-43.9c-5.9,0-10.8,5.2-10.8,11.6v4.5h65.5V48.9z"/>
</g>
<rect x="-383.3" y="61.7" style="fill:#FFF0A5;" width="11.6" height="10.1"/>
<rect x="-369.7" y="61.7" style="fill:#FFF0A5;" width="11.6" height="10.1"/>
<rect x="-356" y="61.7" style="fill:#FFF0A5;" width="11.6" height="10.1"/>
<rect x="-341.8" y="61.7" style="fill:#FFF0A5;" width="11.6" height="10.1"/>
<rect x="-383.3" y="77.2" style="fill:#FFF0A5;" width="11.6" height="10.1"/>
<rect x="-369.7" y="77.2" style="fill:#FFF0A5;" width="11.6" height="10.1"/>
<rect x="-356" y="77.2" style="fill:#FFF0A5;" width="11.6" height="10.1"/>
<rect x="-341.8" y="77.2" style="fill:#FFF0A5;" width="11.6" height="10.1"/>
<rect x="-383.3" y="92.6" style="fill:#FFF0A5;" width="11.6" height="10.1"/>
<rect x="-369.7" y="92.6" style="fill:#FFF0A5;" width="11.6" height="10.1"/>
<rect x="-356" y="92.6" style="fill:#FFF0A5;" width="11.6" height="10.1"/>
<rect x="-341.8" y="92.6" style="fill:#FFF0A5;" width="11.6" height="10.1"/>
<path style="fill:#FFF0A5;stroke:#B74A26;stroke-width:3;stroke-miterlimit:10;" d="M-371.1,44.8L-371.1,44.8
	c-1.6,0-2.9-1.3-2.9-2.9V31.5c0-1.6,1.3-2.9,2.9-2.9l0,0c1.6,0,2.9,1.3,2.9,2.9v10.4C-368.2,43.5-369.5,44.8-371.1,44.8z"/>
<path style="fill:#FFF0A5;stroke:#B74A26;stroke-width:3;stroke-miterlimit:10;" d="M-340.9,44L-340.9,44c-1.6,0-2.9-1.3-2.9-2.9
	V30.7c0-1.6,1.3-2.9,2.9-2.9l0,0c1.6,0,2.9,1.3,2.9,2.9v10.4C-338,42.7-339.3,44-340.9,44z"/>
<g>
	<path style="fill:#B74A26;" d="M101.7,109.3l-1.9-72.2l32.1,25.6c-4.4-29.2-29.5-51.5-59.9-51.5c-33.5,0-60.6,27.1-60.6,60.6
		c0,33.5,27.1,60.6,60.6,60.6c9.1,0,17.8-2,25.5-5.6c-33.1-1.3-52-12.1-54.1-13.8C37.6,108.4,101.7,109.3,101.7,109.3z"/>
	<path style="fill:#8F3919;" d="M132.6,71.8c0-3.1-0.2-6.1-0.7-9.1L99.8,37.1l1.9,72.2c0,0-64.1-0.9-58.3,3.7
		c2.1,1.7,21,12.4,54.1,13.8C118.2,117.1,132.6,96.2,132.6,71.8z"/>
</g>
<g>
	<path style="fill:#B74A26;stroke:#FFF0A5;stroke-width:4.9815;stroke-miterlimit:10;" d="M92.7,113H51.3c-6.6,0-12-5.4-12-12V49.6
		c0-6.6,5.4-12,12-12h41.5c6.6,0,12,5.4,12,12V101C104.7,107.6,99.3,113,92.7,113z"/>
</g>
<g>
	<path style="fill:#FFF0A5;" d="M104.7,48.7c0-6.4-4.9-11.6-10.8-11.6H50.1c-5.9,0-10.8,5.2-10.8,11.6v4.5h65.5V48.7z"/>
</g>
<path style="fill:#FFF0A5;stroke:#B74A26;stroke-width:3;stroke-miterlimit:10;" d="M58.2,44.6L58.2,44.6c-1.6,0-2.9-1.3-2.9-2.9
	V31.3c0-1.6,1.3-2.9,2.9-2.9h0c1.6,0,2.9,1.3,2.9,2.9v10.4C61.1,43.3,59.8,44.6,58.2,44.6z"/>
<path style="fill:#FFF0A5;stroke:#B74A26;stroke-width:3;stroke-miterlimit:10;" d="M88.4,43.9L88.4,43.9c-1.6,0-2.9-1.3-2.9-2.9
	V30.5c0-1.6,1.3-2.9,2.9-2.9h0c1.6,0,2.9,1.3,2.9,2.9v10.4C91.3,42.5,90,43.9,88.4,43.9z"/>
<g>
	<path style="fill:#B74A26;" d="M-138.3,97.7l5.5-12.7l27.8-2.8l5.4-10l-0.3-33.4l-4.3-6.6l14.9,9.2C-99.2,21.2-120,7.2-144,7.2
		c-33.5,0-60.6,27.1-60.6,60.6c0,33.5,27.1,60.6,60.6,60.6c3.2,0,6.4-0.3,9.5-0.8l-32.2-28.4L-138.3,97.7z"/>
	<path style="fill:#8F3919;" d="M-83.4,67.8c0-3.1-0.2-6.1-0.7-9.1c-0.9-6.1-2.7-11.9-5.3-17.3l-14.9-9.2l4.3,6.6l0.3,33.4l-5.4,10
		l-27.8,2.8l-5.5,12.7l-28.4,1.5l32.2,28.4c5.6-0.9,11-2.6,16-4.9C-97.8,113.1-83.4,92.1-83.4,67.8z"/>
</g>
<g>
	<path style="fill:none;stroke:#FFF0A5;stroke-width:3;stroke-miterlimit:10;" d="M-113.4,83.6h-52.4c-6.6,0-12-5.4-12-12V41
		c0-6.6,5.4-12,12-12h52.4c6.6,0,12,5.4,12,12v30.6C-101.4,78.2-106.8,83.6-113.4,83.6z"/>
	
		<polygon style="fill:#FFF0A5;stroke:#FFF0A5;stroke-width:3;stroke-linecap:round;stroke-linejoin:round;stroke-miterlimit:10;" points="
		-146.6,84.4 -146.6,94.2 -166.5,98.5 -112.8,98.5 -132,94 -132.2,84.4 	"/>
	<g>
		<g>
			<g>
				<line style="fill:none;stroke:#000000;stroke-width:0.5;" x1="-34" y1="3.2" x2="-33.9" y2="3.2"/>
				<line style="fill:none;stroke:#000000;stroke-width:0.5;" x1="-34" y1="3.1" x2="-33.9" y2="3.1"/>
				<line style="fill:none;stroke:#000000;stroke-width:0.5;" x1="-34" y1="3.1" x2="-33.9" y2="3.1"/>
				<line style="fill:none;stroke:#000000;stroke-width:0.5;" x1="-34" y1="3.1" x2="-33.9" y2="3.1"/>
			</g>
		</g>
		<g>
			<g>
				<rect x="-33.9" y="3.1" style="fill:#3C3C3C;" width="0" height="0"/>
				<g>
					<path d="M-34,3.1L-34,3.1L-34,3.1C-34,3.1-33.9,3.1-34,3.1C-33.9,3.1-34,3.1-34,3.1C-34,3.1-34,3.1-34,3.1L-34,3.1
						C-34,3.1-34,3.1-34,3.1C-33.9,3.1-33.9,3.1-34,3.1C-33.9,3.1-33.9,3.1-34,3.1L-34,3.1L-34,3.1L-34,3.1L-34,3.1z"/>
					<path d="M-33.9,3.1C-33.9,3.1-33.9,3.1-33.9,3.1C-33.9,3.1-33.9,3.1-33.9,3.1C-33.9,3.1-33.9,3.1-33.9,3.1
						C-33.9,3.1-33.9,3.1-33.9,3.1z M-33.9,3.1C-33.9,3.1-33.9,3.1-33.9,3.1C-33.9,3.1-33.9,3.1-33.9,3.1
						C-33.9,3.1-33.9,3.1-33.9,3.1C-33.9,3.1-33.9,3.1-33.9,3.1z"/>
				</g>
				<rect x="-33.9" y="3.1" style="fill:#3C3C3C;" width="0" height="0"/>
				<g>
					<path d="M-33.9,3.1L-33.9,3.1L-33.9,3.1C-33.9,3.1-33.9,3.1-33.9,3.1C-33.9,3.1-33.9,3.1-33.9,3.1C-33.9,3.1-33.9,3.1-33.9,3.1
						L-33.9,3.1C-33.9,3-33.9,3-33.9,3.1C-33.9,3-33.9,3.1-33.9,3.1C-33.9,3.1-33.9,3.1-33.9,3.1L-33.9,3.1L-33.9,3.1L-33.9,3.1
						L-33.9,3.1z"/>
					<path d="M-33.9,3.1L-33.9,3.1L-33.9,3.1C-33.9,3.1-33.9,3.1-33.9,3.1C-33.9,3.1-33.9,3.1-33.9,3.1C-33.9,3.1-33.9,3.1-33.9,3.1
						C-33.9,3.1-33.9,3.1-33.9,3.1C-33.9,3.1-33.9,3.1-33.9,3.1L-33.9,3.1C-33.9,3.1-33.9,3.1-33.9,3.1C-33.9,3.1-33.9,3.1-33.9,3.1
						C-33.9,3.1-33.9,3.1-33.9,3.1C-33.9,3.1-33.9,3.1-33.9,3.1L-33.9,3.1L-33.9,3.1L-33.9,3.1z"/>
				</g>
				<rect x="-33.9" y="3.1" style="fill:#3C3C3C;" width="0" height="0"/>
				<g>
					<path d="M-33.9,3.1C-33.9,3.1-33.9,3.1-33.9,3.1C-33.9,3.1-33.9,3.1-33.9,3.1C-33.9,3.1-33.9,3.1-33.9,3.1L-33.9,3.1L-33.9,3.1
						L-33.9,3.1C-33.9,3.1-33.9,3.1-33.9,3.1C-33.9,3-33.9,3-33.9,3.1C-33.9,3-33.9,3-33.9,3.1L-33.9,3.1C-33.9,3-33.9,3-33.9,3.1
						C-33.9,3-33.9,3-33.9,3.1C-33.9,3.1-33.9,3.1-33.9,3.1C-33.9,3.1-33.9,3.1-33.9,3.1C-33.9,3.1-33.9,3.1-33.9,3.1
						C-33.9,3.1-33.9,3.1-33.9,3.1L-33.9,3.1z"/>
					<path d="M-33.8,3.1C-33.8,3.1-33.8,3.1-33.8,3.1C-33.8,3.1-33.9,3.1-33.8,3.1C-33.9,3-33.8,3-33.8,3.1C-33.8,3-33.8,3-33.8,3.1
						z M-33.8,3.1C-33.8,3.1-33.8,3.1-33.8,3.1C-33.8,3.1-33.8,3.1-33.8,3.1C-33.8,3.1-33.8,3-33.8,3.1C-33.8,3-33.8,3.1-33.8,3.1z"
						/>
				</g>
			</g>
			<g>
				<rect x="-33.9" y="3.1" style="fill:#CCCDCB;" width="0" height="0"/>
				<g>
					<path d="M-34,3.1L-34,3.1L-34,3.1L-34,3.1L-34,3.1L-34,3.1L-34,3.1L-34,3.1z"/>
					<path d="M-33.9,3.1L-33.9,3.1L-33.9,3.1C-33.9,3.1-33.9,3.1-33.9,3.1C-33.9,3.1-33.9,3.1-33.9,3.1C-33.9,3.1-33.9,3.1-33.9,3.1
						C-33.9,3.1-33.9,3.1-33.9,3.1C-33.9,3.1-33.9,3.1-33.9,3.1L-33.9,3.1C-33.9,3.1-33.9,3.1-33.9,3.1C-33.9,3.1-33.9,3.1-33.9,3.1
						C-33.9,3.1-33.9,3.1-33.9,3.1C-33.9,3.1-33.9,3.1-33.9,3.1L-33.9,3.1L-33.9,3.1L-33.9,3.1z"/>
				</g>
				<rect x="-33.9" y="3.1" style="fill:#CCCDCB;" width="0" height="0"/>
				<g>
					<path d="M-34,3.1L-34,3.1L-34,3.1C-33.9,3.1-33.9,3.1-34,3.1C-33.9,3.1-33.9,3.1-34,3.1C-33.9,3.1-33.9,3.1-34,3.1L-34,3.1
						C-33.9,3.1-33.9,3.1-34,3.1C-33.9,3.1-33.9,3.1-34,3.1C-33.9,3.1-33.9,3.1-34,3.1L-34,3.1L-34,3.1L-34,3.1L-34,3.1z"/>
					<path d="M-33.9,3.1C-33.9,3.1-33.9,3.1-33.9,3.1C-33.9,3.1-33.9,3.1-33.9,3.1C-33.9,3.1-33.9,3.1-33.9,3.1
						C-33.9,3.1-33.9,3.1-33.9,3.1z M-33.9,3.1C-33.9,3.1-33.9,3.1-33.9,3.1C-33.9,3.1-33.9,3.1-33.9,3.1
						C-33.9,3.1-33.9,3.1-33.9,3.1C-33.9,3.1-33.9,3.1-33.9,3.1z"/>
				</g>
				<rect x="-33.9" y="3.1" style="fill:#CCCDCB;" width="0" height="0"/>
				<g>
					<path d="M-33.9,3.1L-33.9,3.1L-33.9,3.1C-33.9,3.1-33.9,3.1-33.9,3.1C-33.9,3.1-33.9,3.1-33.9,3.1C-33.9,3.1-33.9,3.1-33.9,3.1
						L-33.9,3.1C-33.9,3.1-33.9,3.1-33.9,3.1C-33.9,3.1-33.9,3.1-33.9,3.1C-33.9,3.1-33.9,3.1-33.9,3.1L-33.9,3.1L-33.9,3.1
						L-33.9,3.1L-33.9,3.1z"/>
					<path d="M-33.8,3.1C-33.8,3.1-33.8,3.1-33.8,3.1C-33.9,3.1-33.9,3.1-33.8,3.1C-33.9,3.1-33.9,3.1-33.8,3.1
						C-33.8,3.1-33.8,3.1-33.8,3.1z M-33.9,3.1C-33.9,3.1-33.9,3.1-33.9,3.1C-33.8,3.1-33.8,3.1-33.9,3.1
						C-33.8,3.1-33.8,3.1-33.9,3.1C-33.9,3.1-33.9,3.1-33.9,3.1z"/>
				</g>
			</g>
			<g>
				<rect x="-34" y="3.1" style="fill:#858685;" width="0" height="0"/>
				<g>
					<path d="M-34,3.1L-34,3.1L-34,3.1L-34,3.1L-34,3.1L-34,3.1L-34,3.1L-34,3.1z"/>
					<path d="M-33.9,3.1C-33.9,3.1-33.9,3.1-33.9,3.1C-33.9,3.1-34,3.1-33.9,3.1C-34,3.1-33.9,3.1-33.9,3.1
						C-33.9,3.1-33.9,3.1-33.9,3.1z M-33.9,3.1C-33.9,3.1-33.9,3.1-33.9,3.1C-33.9,3.1-33.9,3.1-33.9,3.1
						C-33.9,3.1-33.9,3.1-33.9,3.1C-33.9,3.1-33.9,3.1-33.9,3.1z"/>
				</g>
				<rect x="-33.9" y="3.1" style="fill:#858685;" width="0" height="0"/>
				<g>
					<path d="M-33.9,3.1L-33.9,3.1L-33.9,3.1L-33.9,3.1L-33.9,3.1L-33.9,3.1L-33.9,3.1L-33.9,3.1z"/>
					<path d="M-33.9,3.1L-33.9,3.1L-33.9,3.1C-33.9,3.1-33.9,3.1-33.9,3.1C-33.9,3.1-33.9,3.1-33.9,3.1C-33.9,3.1-33.9,3.1-33.9,3.1
						C-33.9,3.1-33.9,3.1-33.9,3.1C-33.9,3.1-33.9,3.1-33.9,3.1L-33.9,3.1C-33.9,3.1-33.9,3.1-33.9,3.1C-33.9,3.1-33.9,3.1-33.9,3.1
						C-33.9,3.1-33.9,3.1-33.9,3.1C-33.9,3.1-33.9,3.1-33.9,3.1L-33.9,3.1L-33.9,3.1L-33.9,3.1z"/>
				</g>
				<rect x="-33.9" y="3.1" style="fill:#858685;" width="0" height="0"/>
				<g>
					<path d="M-33.9,3.1L-33.9,3.1L-33.9,3.1L-33.9,3.1L-33.9,3.1L-33.9,3.1L-33.9,3.1L-33.9,3.1z"/>
					<path d="M-33.8,3.1C-33.8,3.1-33.8,3.1-33.8,3.1C-33.9,3.1-33.9,3.1-33.8,3.1C-33.9,3.1-33.9,3.1-33.8,3.1
						C-33.8,3.1-33.8,3.1-33.8,3.1z M-33.9,3.1C-33.9,3.1-33.9,3.1-33.9,3.1C-33.8,3.1-33.8,3.1-33.9,3.1
						C-33.8,3.1-33.8,3.1-33.9,3.1C-33.9,3.1-33.9,3.1-33.9,3.1z"/>
				</g>
			</g>
		</g>
		<g>
			<line style="fill:none;stroke:#000000;stroke-width:0.5;" x1="-34" y1="3.2" x2="-33.9" y2="3.2"/>
			<line style="fill:none;stroke:#000000;stroke-width:0.5;" x1="-33.9" y1="3.2" x2="-33.9" y2="3.2"/>
			<g>
				<path d="M-34,3.2L-34,3.2L-34,3.2C-34,3.1-34,3.1-34,3.2C-34,3.1-34,3.1-34,3.2C-34,3.1-34,3.1-34,3.2L-34,3.2
					C-34,3.1-34,3.1-34,3.2C-34,3.1-34,3.1-34,3.2C-34,3.1-34,3.1-34,3.2L-34,3.2L-34,3.2L-34,3.2L-34,3.2z"/>
				<path d="M-33.9,3.1C-33.9,3.2-34,3.2-33.9,3.1C-34,3.2-34,3.2-33.9,3.1C-34,3.1-34,3.1-33.9,3.1C-34,3.1-33.9,3.1-33.9,3.1z
					 M-34,3.1C-34,3.1-34,3.2-34,3.1C-34,3.2-34,3.1-34,3.1C-34,3.1-34,3.1-34,3.1C-34,3.1-34,3.1-34,3.1z"/>
				<path d="M-33.9,3.1L-33.9,3.1L-33.9,3.1L-33.9,3.1L-33.9,3.1L-33.9,3.1L-33.9,3.1L-33.9,3.1z"/>
				<path d="M-33.9,3.2L-33.9,3.2L-33.9,3.2L-33.9,3.2L-33.9,3.2L-33.9,3.2L-33.9,3.2L-33.9,3.2L-33.9,3.2L-33.9,3.2L-33.9,3.2
					L-33.9,3.2z M-33.9,3.1L-33.9,3.1C-33.9,3.1-33.9,3.1-33.9,3.1C-33.9,3.1-33.9,3.1-33.9,3.1L-33.9,3.1L-33.9,3.1z"/>
			</g>
			<line style="fill:none;stroke:#000000;stroke-width:0.5;" x1="-33.9" y1="3.2" x2="-33.9" y2="3.2"/>
			<g>
				<path d="M-34,3.2L-34,3.2L-34,3.2C-34,3.1-34,3.1-34,3.2C-34,3.1-34,3.1-34,3.2C-34,3.1-34,3.1-34,3.2L-34,3.2
					C-34,3.1-34,3.1-34,3.2C-34,3.1-34,3.1-34,3.2C-34,3.1-34,3.1-34,3.2L-34,3.2L-34,3.2L-34,3.2L-34,3.2z"/>
				<path d="M-33.9,3.1C-33.9,3.2-33.9,3.2-33.9,3.1C-33.9,3.2-34,3.2-33.9,3.1C-34,3.1-33.9,3.1-33.9,3.1
					C-33.9,3.1-33.9,3.1-33.9,3.1z M-33.9,3.1C-33.9,3.1-33.9,3.2-33.9,3.1C-33.9,3.2-33.9,3.1-33.9,3.1
					C-33.9,3.1-33.9,3.1-33.9,3.1C-33.9,3.1-33.9,3.1-33.9,3.1z"/>
				<path d="M-33.9,3.1L-33.9,3.1L-33.9,3.1L-33.9,3.1L-33.9,3.1L-33.9,3.1L-33.9,3.1L-33.9,3.1z"/>
				<path d="M-33.8,3.1L-33.8,3.1L-33.8,3.1C-33.8,3.1-33.8,3.1-33.8,3.1C-33.8,3.1-33.8,3.1-33.8,3.1C-33.8,3.1-33.8,3.1-33.8,3.1
					C-33.8,3.2-33.8,3.2-33.8,3.1C-33.8,3.2-33.8,3.2-33.8,3.1L-33.8,3.1C-33.8,3.2-33.8,3.2-33.8,3.1C-33.8,3.2-33.8,3.2-33.8,3.1
					C-33.8,3.1-33.8,3.1-33.8,3.1C-33.8,3.1-33.8,3.1-33.8,3.1L-33.8,3.1L-33.8,3.1L-33.8,3.1z"/>
			</g>
			<line style="fill:none;stroke:#000000;stroke-width:0.5;" x1="-33.9" y1="3.2" x2="-33.9" y2="3.2"/>
			<g>
				<path d="M-34,3.2L-34,3.2L-34,3.2C-33.9,3.1-33.9,3.1-34,3.2C-33.9,3.1-33.9,3.1-34,3.2C-34,3.1-34,3.1-34,3.2L-34,3.2
					C-34,3.1-34,3.1-34,3.2C-33.9,3.1-33.9,3.1-34,3.2C-33.9,3.1-33.9,3.1-34,3.2L-34,3.2L-34,3.2L-34,3.2L-34,3.2z"/>
				<path d="M-33.9,3.1C-33.9,3.2-33.9,3.2-33.9,3.1C-33.9,3.2-33.9,3.2-33.9,3.1C-33.9,3.1-33.9,3.1-33.9,3.1
					C-33.9,3.1-33.9,3.1-33.9,3.1z M-33.9,3.1C-33.9,3.1-33.9,3.2-33.9,3.1C-33.9,3.2-33.9,3.1-33.9,3.1
					C-33.9,3.1-33.9,3.1-33.9,3.1C-33.9,3.1-33.9,3.1-33.9,3.1z"/>
				<path d="M-33.8,3.1L-33.8,3.1L-33.8,3.1L-33.8,3.1L-33.8,3.1L-33.8,3.1L-33.8,3.1L-33.8,3.1z"/>
				<path d="M-33.8,3.1C-33.8,3.1-33.8,3.1-33.8,3.1C-33.8,3.1-33.8,3.1-33.8,3.1C-33.8,3.1-33.8,3.1-33.8,3.1
					C-33.8,3.1-33.8,3.1-33.8,3.1C-33.8,3.2-33.8,3.2-33.8,3.1C-33.8,3.2-33.8,3.2-33.8,3.1C-33.8,3.1-33.8,3.1-33.8,3.1
					C-33.8,3.1-33.8,3.1-33.8,3.1C-33.8,3.1-33.8,3.1-33.8,3.1L-33.8,3.1z M-33.8,3.1C-33.8,3.1-33.8,3.1-33.8,3.1
					C-33.8,3.1-33.8,3.1-33.8,3.1C-33.8,3.1-33.8,3.1-33.8,3.1C-33.8,3.2-33.8,3.2-33.8,3.1C-33.8,3.2-33.8,3.2-33.8,3.1z"/>
			</g>
		</g>
		<g>
			<line style="fill:none;stroke:#000000;stroke-width:0.5;" x1="-34" y1="3.2" x2="-34" y2="3.1"/>
			<line style="fill:none;stroke:#000000;stroke-width:0.5;" x1="-34" y1="3.2" x2="-34" y2="3.2"/>
			<g>
				<path d="M-34,3.1C-34,3.1-34,3.2-34,3.1C-34,3.2-34,3.1-34,3.1C-34,3.1-34,3.1-34,3.1C-34,3.1-34,3.1-34,3.1z M-34,3.1
					C-34,3.1-34,3.2-34,3.1C-34,3.2-34,3.1-34,3.1C-34,3.1-34,3.1-34,3.1C-34,3.1-34,3.1-34,3.1z"/>
			</g>
			<line style="fill:none;stroke:#000000;stroke-width:0.5;" x1="-34" y1="3.1" x2="-34" y2="3.1"/>
			<g>
				<path d="M-34,3.1L-34,3.1L-34,3.1L-34,3.1L-34,3.1L-34,3.1L-34,3.1L-34,3.1z"/>
				<path d="M-34,3.1C-34,3.1-34,3.1-34,3.1C-34,3.1-34,3.1-34,3.1C-34,3.1-34,3.1-34,3.1C-34,3.1-34,3.1-34,3.1z M-34,3.1
					C-34,3.1-34,3.1-34,3.1C-34,3.1-34,3.1-34,3.1C-34,3.1-34,3.1-34,3.1C-34,3.1-34,3.1-34,3.1z"/>
			</g>
			<line style="fill:none;stroke:#000000;stroke-width:0.5;" x1="-34" y1="3.1" x2="-34" y2="3.1"/>
			<g>
				<path d="M-34.1,3.1L-34.1,3.1L-34.1,3.1C-34,3.1-34,3.1-34.1,3.1C-34,3.1-34,3.1-34.1,3.1C-34.1,3.1-34.1,3.1-34.1,3.1
					L-34.1,3.1C-34.1,3.1-34,3.1-34.1,3.1C-34,3.1-34,3.1-34.1,3.1C-34,3.1-34,3.1-34.1,3.1L-34.1,3.1L-34.1,3.1L-34.1,3.1
					L-34.1,3.1z"/>
				<path d="M-34,3.1C-34,3.1-34,3.1-34,3.1C-34,3.1-34,3.1-34,3.1C-34,3.1-34,3.1-34,3.1C-34,3.1-34,3.1-34,3.1z M-34,3.1
					C-34,3.1-34,3.1-34,3.1C-34,3.1-34,3.1-34,3.1C-34,3.1-34,3.1-34,3.1C-34,3.1-34,3.1-34,3.1z"/>
			</g>
			<line style="fill:none;stroke:#000000;stroke-width:0.5;" x1="-34" y1="3.1" x2="-34" y2="3.1"/>
			<g>
				<path d="M-34.1,3.1C-34.1,3.1-34.1,3.1-34.1,3.1C-34,3.1-34,3.1-34.1,3.1C-34,3.1-34,3.1-34.1,3.1L-34.1,3.1L-34.1,3.1
					L-34.1,3.1C-34,3.1-34,3.1-34.1,3.1C-34,3.1-34,3-34.1,3.1C-34.1,3-34.1,3.1-34.1,3.1L-34.1,3.1C-34.1,3-34.1,3-34.1,3.1
					C-34,3-34,3-34.1,3.1C-34,3.1-34,3.1-34.1,3.1C-34,3.1-34,3.1-34.1,3.1C-34,3.1-34,3.1-34.1,3.1C-34.1,3.1-34.1,3.1-34.1,3.1
					L-34.1,3.1z"/>
				<path d="M-34,3.1C-34,3.1-34,3.1-34,3.1C-34,3.1-34,3.1-34,3.1C-34,3.1-34,3-34,3.1C-34,3-34,3.1-34,3.1z M-34,3.1
					C-34,3.1-34,3.1-34,3.1C-34,3.1-34,3.1-34,3.1C-34,3.1-34,3-34,3.1C-34,3-34,3.1-34,3.1z"/>
			</g>
		</g>
	</g>
</g>
<g>
	<path style="fill:#B74A26;stroke:#FFF0A5;stroke-width:4;stroke-miterlimit:10;" d="M-171.7,102.1h-7.3c-6.6,0-12-5.4-12-12V58.3
		c0-6.6,5.4-12,12-12h7.3c6.6,0,12,5.4,12,12v31.8C-159.7,96.7-165.1,102.1-171.7,102.1z"/>
	<g>
		<path style="fill:#FFF0A5;" d="M-159.7,54.3c0-4.4-3.3-8-7.4-8h-16.4c-4.1,0-7.4,3.6-7.4,8v0L-159.7,54.3L-159.7,54.3z"/>
		<path style="fill:#FFF0A5;" d="M-191,94.1c0,4.4,3.3,8,7.4,8h16.4c4.1,0,7.4-3.6,7.4-8v-3H-191V94.1z"/>
	</g>
	<ellipse style="fill:#8E2C1D;" cx="-175.4" cy="97.4" rx="3.4" ry="3.7"/>
	<path style="fill:#8E2C1D;" d="M-167.8,50.3H-183c-0.4,0-0.8-0.4-0.8-0.8v0c0-0.4,0.4-0.8,0.8-0.8h15.2c0.4,0,0.8,0.4,0.8,0.8v0
		C-167,50-167.3,50.3-167.8,50.3z"/>
</g>
<polyline style="fill:none;stroke:#FFF0A5;stroke-width:5;stroke-linecap:round;stroke-linejoin:round;stroke-miterlimit:10;" points="
	51.1,86 62.3,97.5 92.9,66.4 "/>
<g>
</g>
<g>
</g>
<g>
</g>
<g>
</g>
<g>
</g>
<g>
</g>
</svg>
