<?xml version="1.0" encoding="utf-8"?>
<!-- Generator: Adobe Illustrator 19.1.0, SVG Export Plug-In . SVG Version: 6.00 Build 0)  -->
<svg version="1.1" id="Layer_1" xmlns="http://www.w3.org/2000/svg" xmlns:xlink="http://www.w3.org/1999/xlink" x="0px" y="0px"
	 width="144px" height="144px" viewBox="0 0 144 144" style="enable-background:new 0 0 144 144;" xml:space="preserve">
<circle style="fill:#B74A26;" cx="-576" cy="67.8" r="60.6"/>
<rect x="-515.4" y="-72.6" style="fill:#468A67;" width="51.6" height="57.5"/>
<rect x="-437.1" y="-90.9" style="fill:#FFF0A5;" width="54.9" height="75.9"/>
<rect x="-363.3" y="-101.7" style="fill:#FBAF3D;" width="54.6" height="67.5"/>
<rect x="-291.3" y="-101.7" style="fill:#B74A26;" width="50" height="77.5"/>
<rect x="-219.3" y="-68" style="fill:#8E2C1D;" width="29.5" height="58.8"/>
<path style="fill:#8F3919;" d="M-553.2,29.5l33.9,28.2c2.6,2.2,4.1,5.4,4,8.8c-0.4,10.5-1.6,34.4-28.1,52.3
	c-37.1-1.5-50-9-52.3-10.9c-5.8-4.6,42.6-6.6,42.6-6.6L-553.2,29.5z"/>
<g>
	<path style="fill:#B74A26;" d="M-111.6,109.5l-1.9-72.2l32.1,25.6c-4.4-29.2-29.5-51.5-59.9-51.5c-33.5,0-60.6,27.1-60.6,60.6
		c0,33.5,27.1,60.6,60.6,60.6c9.1,0,17.8-2,25.5-5.6c-33.1-1.3-52-12.1-54.1-13.8C-175.6,108.6-111.6,109.5-111.6,109.5z"/>
	<path style="fill:#8F3919;" d="M-80.7,72c0-3.1-0.2-6.1-0.7-9.1l-32.1-25.6l1.9,72.2c0,0-64.1-0.9-58.3,3.7
		c2.1,1.7,21,12.4,54.1,13.8C-95,117.3-80.7,96.3-80.7,72z"/>
</g>
<g>
	<path style="fill:none;stroke:#FFF0A5;stroke-width:4;stroke-miterlimit:10;" d="M-564.5,109.6h-22.9c-6.6,0-12-5.4-12-12V37.9
		c0-6.6,5.4-12,12-12h22.9c6.6,0,12,5.4,12,12v59.7C-552.5,104.2-557.9,109.6-564.5,109.6z"/>
	<g>
		<path style="fill:#FFF0A5;" d="M-552.5,37.9c0-6.6-5-12-11.2-12h-24.6c-6.1,0-11.2,5.4-11.2,12v0L-552.5,37.9L-552.5,37.9z"/>
		<path style="fill:#FFF0A5;" d="M-599.5,97.6c0,6.6,5,12,11.2,12h24.6c6.1,0,11.2-5.4,11.2-12v-4.5h-46.9V97.6z"/>
	</g>
	<ellipse style="fill:#8E2C1D;" cx="-576" cy="102.5" rx="5.1" ry="5.5"/>
	<path style="fill:#8E2C1D;" d="M-564.6,31.9h-22.8c-0.7,0-1.2-0.5-1.2-1.2v0c0-0.7,0.5-1.2,1.2-1.2h22.8c0.7,0,1.2,0.5,1.2,1.2v0
		C-563.4,31.4-563.9,31.9-564.6,31.9z"/>
</g>
<path style="fill:#FFF0A5;" d="M-562.9,48.2h-26.3c-0.6,0-1.1-0.5-1.1-1.1v0c0-0.6,0.5-1.1,1.1-1.1h26.3c0.6,0,1.1,0.5,1.1,1.1v0
	C-561.8,47.7-562.3,48.2-562.9,48.2z"/>
<path style="fill:#FFF0A5;" d="M-562.9,52.3h-26.3c-0.6,0-1.1-0.5-1.1-1.1v0c0-0.6,0.5-1.1,1.1-1.1h26.3c0.6,0,1.1,0.5,1.1,1.1v0
	C-561.8,51.8-562.3,52.3-562.9,52.3z"/>
<g>
	<path style="fill:#B74A26;" d="M-385.4,62.3l42.4-30l42.8,30.1c-4.6-28.9-29.6-51-59.8-51c-33.5,0-60.6,27.1-60.6,60.6
		c0,33.5,27.1,60.6,60.6,60.6c15.5,0,29.6-5.8,40.3-15.4c-23.9-3.1-58.6-10.9-58.6-10.9l42.4-30l30.7,21.7c2.9-6,4.8-12.6,5.5-19.5
		C-324.9,73.4-385.4,62.3-385.4,62.3z"/>
	<path style="fill:#8F3919;" d="M-385.4,62.3c0,0,60.5,11.1,85.6,16.2c0.2-2.1,0.3-4.3,0.3-6.5c0-3.3-0.3-6.5-0.8-9.6L-343,32.3
		L-385.4,62.3z"/>
	<path style="fill:#8F3919;" d="M-378.3,106.3c0,0,34.8,7.8,58.6,10.9c6-5.4,10.9-11.9,14.4-19.3l-30.7-21.7L-378.3,106.3z"/>
</g>
<path style="fill:#FFF0A5;" d="M-574.9,56.6h-14.2c-0.6,0-1.1-0.5-1.1-1.1v0c0-0.6,0.5-1.1,1.1-1.1h14.2c0.6,0,1.1,0.5,1.1,1.1v0
	C-573.9,56.1-574.4,56.6-574.9,56.6z"/>
<path style="fill:#B74A26;stroke:#FFF0A5;stroke-width:3;stroke-linejoin:round;stroke-miterlimit:10;" d="M-329.7,66.4l-6-11.8
	c0.6-1.4,0.9-2.9,0.9-4.5v-5.9c0-6.6-5.4-12-12-12h-31.4c-6.6,0-12,5.4-12,12v5.9c0,6.6,5.4,12,12,12h31.4c1.3,0,2.5-0.2,3.6-0.6
	L-329.7,66.4z"/>
<path style="fill:#B74A26;stroke:#FFF0A5;stroke-width:3;stroke-linejoin:round;stroke-miterlimit:10;" d="M-387.1,110.7l6-11.8
	c-0.6-1.4-0.9-2.9-0.9-4.5v-5.9c0-6.6,5.4-12,12-12h31.4c6.6,0,12,5.4,12,12v5.9c0,6.6-5.4,12-12,12H-370c-1.3,0-2.5-0.2-3.6-0.6
	L-387.1,110.7z"/>
<path style="fill:#FFF0A5;" d="M-348.3,49.3h-33.6c-0.6,0-1.1-0.5-1.1-1.1v0c0-0.6,0.5-1.1,1.1-1.1h33.6c0.6,0,1.1,0.5,1.1,1.1v0
	C-347.2,48.9-347.7,49.3-348.3,49.3z"/>
<path style="fill:#FFF0A5;" d="M-348.3,53.4h-33.6c-0.6,0-1.1-0.5-1.1-1.1v0c0-0.6,0.5-1.1,1.1-1.1h33.6c0.6,0,1.1,0.5,1.1,1.1v0
	C-347.2,53-347.7,53.4-348.3,53.4z"/>
<path style="fill:#FFF0A5;" d="M-337.2,86.3h-33.6c-0.6,0-1.1-0.5-1.1-1.1l0,0c0-0.6,0.5-1.1,1.1-1.1h33.6c0.6,0,1.1,0.5,1.1,1.1
	l0,0C-336.1,85.9-336.6,86.3-337.2,86.3z"/>
<path style="fill:#FFF0A5;" d="M-337.2,90.4h-33.6c-0.6,0-1.1-0.5-1.1-1.1v0c0-0.6,0.5-1.1,1.1-1.1h33.6c0.6,0,1.1,0.5,1.1,1.1v0
	C-336.1,89.9-336.6,90.4-337.2,90.4z"/>
<path style="fill:#FFF0A5;" d="M-353.7,94.8h-17.1c-0.6,0-1.1-0.5-1.1-1.1v0c0-0.6,0.5-1.1,1.1-1.1h17.1c0.6,0,1.1,0.5,1.1,1.1v0
	C-352.6,94.3-353.1,94.8-353.7,94.8z"/>
<g>
	<path style="fill:#B74A26;stroke:#FFF0A5;stroke-width:4.9815;stroke-miterlimit:10;" d="M-120.5,113.2H-162c-6.6,0-12-5.4-12-12
		V49.8c0-6.6,5.4-12,12-12h41.5c6.6,0,12,5.4,12,12v51.4C-108.5,107.8-113.9,113.2-120.5,113.2z"/>
</g>
<g>
	<path style="fill:#FFF0A5;" d="M-108.5,48.9c0-6.4-4.9-11.6-10.8-11.6h-43.9c-5.9,0-10.8,5.2-10.8,11.6v4.5h65.5V48.9z"/>
</g>
<rect x="-167.3" y="61.7" style="fill:#FFF0A5;" width="11.6" height="10.1"/>
<rect x="-153.7" y="61.7" style="fill:#FFF0A5;" width="11.6" height="10.1"/>
<rect x="-140" y="61.7" style="fill:#FFF0A5;" width="11.6" height="10.1"/>
<rect x="-125.8" y="61.7" style="fill:#FFF0A5;" width="11.6" height="10.1"/>
<rect x="-167.3" y="77.2" style="fill:#FFF0A5;" width="11.6" height="10.1"/>
<rect x="-153.7" y="77.2" style="fill:#FFF0A5;" width="11.6" height="10.1"/>
<rect x="-140" y="77.2" style="fill:#FFF0A5;" width="11.6" height="10.1"/>
<rect x="-125.8" y="77.2" style="fill:#FFF0A5;" width="11.6" height="10.1"/>
<rect x="-167.3" y="92.6" style="fill:#FFF0A5;" width="11.6" height="10.1"/>
<rect x="-153.7" y="92.6" style="fill:#FFF0A5;" width="11.6" height="10.1"/>
<rect x="-140" y="92.6" style="fill:#FFF0A5;" width="11.6" height="10.1"/>
<rect x="-125.8" y="92.6" style="fill:#FFF0A5;" width="11.6" height="10.1"/>
<path style="fill:#FFF0A5;stroke:#B74A26;stroke-width:3;stroke-miterlimit:10;" d="M-155.1,44.8L-155.1,44.8
	c-1.6,0-2.9-1.3-2.9-2.9V31.5c0-1.6,1.3-2.9,2.9-2.9l0,0c1.6,0,2.9,1.3,2.9,2.9v10.4C-152.2,43.5-153.5,44.8-155.1,44.8z"/>
<path style="fill:#FFF0A5;stroke:#B74A26;stroke-width:3;stroke-miterlimit:10;" d="M-124.9,44L-124.9,44c-1.6,0-2.9-1.3-2.9-2.9
	V30.7c0-1.6,1.3-2.9,2.9-2.9h0c1.6,0,2.9,1.3,2.9,2.9v10.4C-122,42.7-123.3,44-124.9,44z"/>
<g>
	<path style="fill:#B74A26;" d="M77.7,97.7L83.2,85l27.8-2.8l5.4-10l-0.3-33.4l-4.3-6.6l14.9,9.2C116.8,21.2,96,7.2,72,7.2
		c-33.5,0-60.6,27.1-60.6,60.6c0,33.5,27.1,60.6,60.6,60.6c3.2,0,6.4-0.3,9.5-0.8L49.3,99.2L77.7,97.7z"/>
	<path style="fill:#8F3919;" d="M132.6,67.8c0-3.1-0.2-6.1-0.7-9.1c-0.9-6.1-2.7-11.9-5.3-17.3l-14.9-9.2l4.3,6.6l0.3,33.4l-5.4,10
		L83.2,85l-5.5,12.7l-28.4,1.5l32.2,28.4c5.6-0.9,11-2.6,16-4.9C118.2,113.1,132.6,92.1,132.6,67.8z"/>
</g>
<g>
	<path style="fill:none;stroke:#FFF0A5;stroke-width:3;stroke-miterlimit:10;" d="M102.6,83.6H50.2c-6.6,0-12-5.4-12-12V41
		c0-6.6,5.4-12,12-12h52.4c6.6,0,12,5.4,12,12v30.6C114.6,78.2,109.2,83.6,102.6,83.6z"/>
	
		<polygon style="fill:#FFF0A5;stroke:#FFF0A5;stroke-width:3;stroke-linecap:round;stroke-linejoin:round;stroke-miterlimit:10;" points="
		69.4,84.4 69.4,94.2 49.5,98.5 103.2,98.5 84,94 83.8,84.4 	"/>
	<g>
		<g>
			<g>
				<line style="fill:none;stroke:#000000;stroke-width:0.5;" x1="182" y1="3.2" x2="182.1" y2="3.2"/>
				<line style="fill:none;stroke:#000000;stroke-width:0.5;" x1="182" y1="3.1" x2="182.1" y2="3.1"/>
				<line style="fill:none;stroke:#000000;stroke-width:0.5;" x1="182" y1="3.1" x2="182.1" y2="3.1"/>
				<line style="fill:none;stroke:#000000;stroke-width:0.5;" x1="182" y1="3.1" x2="182.1" y2="3.1"/>
			</g>
		</g>
		<g>
			<g>
				<rect x="182.1" y="3.1" style="fill:#3C3C3C;" width="0" height="0"/>
				<g>
					<path d="M182,3.1L182,3.1L182,3.1C182,3.1,182.1,3.1,182,3.1C182.1,3.1,182,3.1,182,3.1C182,3.1,182,3.1,182,3.1L182,3.1
						C182,3.1,182,3.1,182,3.1C182.1,3.1,182.1,3.1,182,3.1C182.1,3.1,182.1,3.1,182,3.1L182,3.1L182,3.1L182,3.1L182,3.1z"/>
					<path d="M182.1,3.1C182.1,3.1,182.1,3.1,182.1,3.1C182.1,3.1,182.1,3.1,182.1,3.1C182.1,3.1,182.1,3.1,182.1,3.1
						C182.1,3.1,182.1,3.1,182.1,3.1z M182.1,3.1C182.1,3.1,182.1,3.1,182.1,3.1C182.1,3.1,182.1,3.1,182.1,3.1
						C182.1,3.1,182.1,3.1,182.1,3.1C182.1,3.1,182.1,3.1,182.1,3.1z"/>
				</g>
				<rect x="182.1" y="3.1" style="fill:#3C3C3C;" width="0" height="0"/>
				<g>
					<path d="M182.1,3.1L182.1,3.1L182.1,3.1C182.1,3.1,182.1,3.1,182.1,3.1C182.1,3.1,182.1,3.1,182.1,3.1
						C182.1,3.1,182.1,3.1,182.1,3.1L182.1,3.1C182.1,3,182.1,3,182.1,3.1C182.1,3,182.1,3.1,182.1,3.1
						C182.1,3.1,182.1,3.1,182.1,3.1L182.1,3.1L182.1,3.1L182.1,3.1L182.1,3.1z"/>
					<path d="M182.1,3.1L182.1,3.1L182.1,3.1C182.1,3.1,182.1,3.1,182.1,3.1C182.1,3.1,182.1,3.1,182.1,3.1
						C182.1,3.1,182.1,3.1,182.1,3.1C182.1,3.1,182.1,3.1,182.1,3.1C182.1,3.1,182.1,3.1,182.1,3.1L182.1,3.1
						C182.1,3.1,182.1,3.1,182.1,3.1C182.1,3.1,182.1,3.1,182.1,3.1C182.1,3.1,182.1,3.1,182.1,3.1C182.1,3.1,182.1,3.1,182.1,3.1
						L182.1,3.1L182.1,3.1L182.1,3.1z"/>
				</g>
				<rect x="182.1" y="3.1" style="fill:#3C3C3C;" width="0" height="0"/>
				<g>
					<path d="M182.1,3.1C182.1,3.1,182.1,3.1,182.1,3.1C182.1,3.1,182.1,3.1,182.1,3.1C182.1,3.1,182.1,3.1,182.1,3.1L182.1,3.1
						L182.1,3.1L182.1,3.1C182.1,3.1,182.1,3.1,182.1,3.1C182.1,3,182.1,3,182.1,3.1C182.1,3,182.1,3,182.1,3.1L182.1,3.1
						C182.1,3,182.1,3,182.1,3.1C182.1,3,182.1,3,182.1,3.1C182.1,3.1,182.1,3.1,182.1,3.1C182.1,3.1,182.1,3.1,182.1,3.1
						C182.1,3.1,182.1,3.1,182.1,3.1C182.1,3.1,182.1,3.1,182.1,3.1L182.1,3.1z"/>
					<path d="M182.2,3.1C182.2,3.1,182.2,3.1,182.2,3.1C182.2,3.1,182.1,3.1,182.2,3.1C182.1,3,182.2,3,182.2,3.1
						C182.2,3,182.2,3,182.2,3.1z M182.2,3.1C182.2,3.1,182.2,3.1,182.2,3.1C182.2,3.1,182.2,3.1,182.2,3.1
						C182.2,3.1,182.2,3,182.2,3.1C182.2,3,182.2,3.1,182.2,3.1z"/>
				</g>
			</g>
			<g>
				<rect x="182.1" y="3.1" style="fill:#CCCDCB;" width="0" height="0"/>
				<g>
					<path d="M182,3.1L182,3.1L182,3.1L182,3.1L182,3.1L182,3.1L182,3.1L182,3.1z"/>
					<path d="M182.1,3.1L182.1,3.1L182.1,3.1C182.1,3.1,182.1,3.1,182.1,3.1C182.1,3.1,182.1,3.1,182.1,3.1
						C182.1,3.1,182.1,3.1,182.1,3.1C182.1,3.1,182.1,3.1,182.1,3.1C182.1,3.1,182.1,3.1,182.1,3.1L182.1,3.1
						C182.1,3.1,182.1,3.1,182.1,3.1C182.1,3.1,182.1,3.1,182.1,3.1C182.1,3.1,182.1,3.1,182.1,3.1C182.1,3.1,182.1,3.1,182.1,3.1
						L182.1,3.1L182.1,3.1L182.1,3.1z"/>
				</g>
				<rect x="182.1" y="3.1" style="fill:#CCCDCB;" width="0" height="0"/>
				<g>
					<path d="M182,3.1L182,3.1L182,3.1C182.1,3.1,182.1,3.1,182,3.1C182.1,3.1,182.1,3.1,182,3.1C182.1,3.1,182.1,3.1,182,3.1
						L182,3.1C182.1,3.1,182.1,3.1,182,3.1C182.1,3.1,182.1,3.1,182,3.1C182.1,3.1,182.1,3.1,182,3.1L182,3.1L182,3.1L182,3.1
						L182,3.1z"/>
					<path d="M182.1,3.1C182.1,3.1,182.1,3.1,182.1,3.1C182.1,3.1,182.1,3.1,182.1,3.1C182.1,3.1,182.1,3.1,182.1,3.1
						C182.1,3.1,182.1,3.1,182.1,3.1z M182.1,3.1C182.1,3.1,182.1,3.1,182.1,3.1C182.1,3.1,182.1,3.1,182.1,3.1
						C182.1,3.1,182.1,3.1,182.1,3.1C182.1,3.1,182.1,3.1,182.1,3.1z"/>
				</g>
				<rect x="182.1" y="3.1" style="fill:#CCCDCB;" width="0" height="0"/>
				<g>
					<path d="M182.1,3.1L182.1,3.1L182.1,3.1C182.1,3.1,182.1,3.1,182.1,3.1C182.1,3.1,182.1,3.1,182.1,3.1
						C182.1,3.1,182.1,3.1,182.1,3.1L182.1,3.1C182.1,3.1,182.1,3.1,182.1,3.1C182.1,3.1,182.1,3.1,182.1,3.1
						C182.1,3.1,182.1,3.1,182.1,3.1L182.1,3.1L182.1,3.1L182.1,3.1L182.1,3.1z"/>
					<path d="M182.2,3.1C182.2,3.1,182.2,3.1,182.2,3.1C182.1,3.1,182.1,3.1,182.2,3.1C182.1,3.1,182.1,3.1,182.2,3.1
						C182.2,3.1,182.2,3.1,182.2,3.1z M182.1,3.1C182.1,3.1,182.1,3.1,182.1,3.1C182.2,3.1,182.2,3.1,182.1,3.1
						C182.2,3.1,182.2,3.1,182.1,3.1C182.1,3.1,182.1,3.1,182.1,3.1z"/>
				</g>
			</g>
			<g>
				<rect x="182" y="3.1" style="fill:#858685;" width="0" height="0"/>
				<g>
					<path d="M182,3.1L182,3.1L182,3.1L182,3.1L182,3.1L182,3.1L182,3.1L182,3.1z"/>
					<path d="M182.1,3.1C182.1,3.1,182.1,3.1,182.1,3.1C182.1,3.1,182,3.1,182.1,3.1C182,3.1,182.1,3.1,182.1,3.1
						C182.1,3.1,182.1,3.1,182.1,3.1z M182.1,3.1C182.1,3.1,182.1,3.1,182.1,3.1C182.1,3.1,182.1,3.1,182.1,3.1
						C182.1,3.1,182.1,3.1,182.1,3.1C182.1,3.1,182.1,3.1,182.1,3.1z"/>
				</g>
				<rect x="182.1" y="3.1" style="fill:#858685;" width="0" height="0"/>
				<g>
					<path d="M182.1,3.1L182.1,3.1L182.1,3.1L182.1,3.1L182.1,3.1L182.1,3.1L182.1,3.1L182.1,3.1z"/>
					<path d="M182.1,3.1L182.1,3.1L182.1,3.1C182.1,3.1,182.1,3.1,182.1,3.1C182.1,3.1,182.1,3.1,182.1,3.1
						C182.1,3.1,182.1,3.1,182.1,3.1C182.1,3.1,182.1,3.1,182.1,3.1C182.1,3.1,182.1,3.1,182.1,3.1L182.1,3.1
						C182.1,3.1,182.1,3.1,182.1,3.1C182.1,3.1,182.1,3.1,182.1,3.1C182.1,3.1,182.1,3.1,182.1,3.1C182.1,3.1,182.1,3.1,182.1,3.1
						L182.1,3.1L182.1,3.1L182.1,3.1z"/>
				</g>
				<rect x="182.1" y="3.1" style="fill:#858685;" width="0" height="0"/>
				<g>
					<path d="M182.1,3.1L182.1,3.1L182.1,3.1L182.1,3.1L182.1,3.1L182.1,3.1L182.1,3.1L182.1,3.1z"/>
					<path d="M182.2,3.1C182.2,3.1,182.2,3.1,182.2,3.1C182.1,3.1,182.1,3.1,182.2,3.1C182.1,3.1,182.1,3.1,182.2,3.1
						C182.2,3.1,182.2,3.1,182.2,3.1z M182.1,3.1C182.1,3.1,182.1,3.1,182.1,3.1C182.2,3.1,182.2,3.1,182.1,3.1
						C182.2,3.1,182.2,3.1,182.1,3.1C182.1,3.1,182.1,3.1,182.1,3.1z"/>
				</g>
			</g>
		</g>
		<g>
			<line style="fill:none;stroke:#000000;stroke-width:0.5;" x1="182" y1="3.2" x2="182.1" y2="3.2"/>
			<line style="fill:none;stroke:#000000;stroke-width:0.5;" x1="182.1" y1="3.2" x2="182.1" y2="3.2"/>
			<g>
				<path d="M182,3.2L182,3.2L182,3.2C182,3.1,182,3.1,182,3.2C182,3.1,182,3.1,182,3.2C182,3.1,182,3.1,182,3.2L182,3.2
					C182,3.1,182,3.1,182,3.2C182,3.1,182,3.1,182,3.2C182,3.1,182,3.1,182,3.2L182,3.2L182,3.2L182,3.2L182,3.2z"/>
				<path d="M182.1,3.1C182.1,3.2,182,3.2,182.1,3.1C182,3.2,182,3.2,182.1,3.1C182,3.1,182,3.1,182.1,3.1
					C182,3.1,182.1,3.1,182.1,3.1z M182,3.1C182,3.1,182,3.2,182,3.1C182,3.2,182,3.1,182,3.1C182,3.1,182,3.1,182,3.1
					C182,3.1,182,3.1,182,3.1z"/>
				<path d="M182.1,3.1L182.1,3.1L182.1,3.1L182.1,3.1L182.1,3.1L182.1,3.1L182.1,3.1L182.1,3.1z"/>
				<path d="M182.1,3.2L182.1,3.2L182.1,3.2L182.1,3.2L182.1,3.2L182.1,3.2L182.1,3.2L182.1,3.2L182.1,3.2L182.1,3.2L182.1,3.2
					L182.1,3.2z M182.1,3.1L182.1,3.1C182.1,3.1,182.1,3.1,182.1,3.1C182.1,3.1,182.1,3.1,182.1,3.1L182.1,3.1L182.1,3.1z"/>
			</g>
			<line style="fill:none;stroke:#000000;stroke-width:0.5;" x1="182.1" y1="3.2" x2="182.1" y2="3.2"/>
			<g>
				<path d="M182,3.2L182,3.2L182,3.2C182,3.1,182,3.1,182,3.2C182,3.1,182,3.1,182,3.2C182,3.1,182,3.1,182,3.2L182,3.2
					C182,3.1,182,3.1,182,3.2C182,3.1,182,3.1,182,3.2C182,3.1,182,3.1,182,3.2L182,3.2L182,3.2L182,3.2L182,3.2z"/>
				<path d="M182.1,3.1C182.1,3.2,182.1,3.2,182.1,3.1C182.1,3.2,182,3.2,182.1,3.1C182,3.1,182.1,3.1,182.1,3.1
					C182.1,3.1,182.1,3.1,182.1,3.1z M182.1,3.1C182.1,3.1,182.1,3.2,182.1,3.1C182.1,3.2,182.1,3.1,182.1,3.1
					C182.1,3.1,182.1,3.1,182.1,3.1C182.1,3.1,182.1,3.1,182.1,3.1z"/>
				<path d="M182.1,3.1L182.1,3.1L182.1,3.1L182.1,3.1L182.1,3.1L182.1,3.1L182.1,3.1L182.1,3.1z"/>
				<path d="M182.2,3.1L182.2,3.1L182.2,3.1C182.2,3.1,182.2,3.1,182.2,3.1C182.2,3.1,182.2,3.1,182.2,3.1
					C182.2,3.1,182.2,3.1,182.2,3.1C182.2,3.2,182.2,3.2,182.2,3.1C182.2,3.2,182.2,3.2,182.2,3.1L182.2,3.1
					C182.2,3.2,182.2,3.2,182.2,3.1C182.2,3.2,182.2,3.2,182.2,3.1C182.2,3.1,182.2,3.1,182.2,3.1C182.2,3.1,182.2,3.1,182.2,3.1
					L182.2,3.1L182.2,3.1L182.2,3.1z"/>
			</g>
			<line style="fill:none;stroke:#000000;stroke-width:0.5;" x1="182.1" y1="3.2" x2="182.1" y2="3.2"/>
			<g>
				<path d="M182,3.2L182,3.2L182,3.2C182.1,3.1,182.1,3.1,182,3.2C182.1,3.1,182.1,3.1,182,3.2C182,3.1,182,3.1,182,3.2L182,3.2
					C182,3.1,182,3.1,182,3.2C182.1,3.1,182.1,3.1,182,3.2C182.1,3.1,182.1,3.1,182,3.2L182,3.2L182,3.2L182,3.2L182,3.2z"/>
				<path d="M182.1,3.1C182.1,3.2,182.1,3.2,182.1,3.1C182.1,3.2,182.1,3.2,182.1,3.1C182.1,3.1,182.1,3.1,182.1,3.1
					C182.1,3.1,182.1,3.1,182.1,3.1z M182.1,3.1C182.1,3.1,182.1,3.2,182.1,3.1C182.1,3.2,182.1,3.1,182.1,3.1
					C182.1,3.1,182.1,3.1,182.1,3.1C182.1,3.1,182.1,3.1,182.1,3.1z"/>
				<path d="M182.2,3.1L182.2,3.1L182.2,3.1L182.2,3.1L182.2,3.1L182.2,3.1L182.2,3.1L182.2,3.1z"/>
				<path d="M182.2,3.1C182.2,3.1,182.2,3.1,182.2,3.1C182.2,3.1,182.2,3.1,182.2,3.1C182.2,3.1,182.2,3.1,182.2,3.1
					C182.2,3.1,182.2,3.1,182.2,3.1C182.2,3.2,182.2,3.2,182.2,3.1C182.2,3.2,182.2,3.2,182.2,3.1C182.2,3.1,182.2,3.1,182.2,3.1
					C182.2,3.1,182.2,3.1,182.2,3.1C182.2,3.1,182.2,3.1,182.2,3.1L182.2,3.1z M182.2,3.1C182.2,3.1,182.2,3.1,182.2,3.1
					C182.2,3.1,182.2,3.1,182.2,3.1C182.2,3.1,182.2,3.1,182.2,3.1C182.2,3.2,182.2,3.2,182.2,3.1C182.2,3.2,182.2,3.2,182.2,3.1z"
					/>
			</g>
		</g>
		<g>
			<line style="fill:none;stroke:#000000;stroke-width:0.5;" x1="182" y1="3.2" x2="182" y2="3.1"/>
			<line style="fill:none;stroke:#000000;stroke-width:0.5;" x1="182" y1="3.2" x2="182" y2="3.2"/>
			<g>
				<path d="M182,3.1C182,3.1,182,3.2,182,3.1C182,3.2,182,3.1,182,3.1C182,3.1,182,3.1,182,3.1C182,3.1,182,3.1,182,3.1z M182,3.1
					C182,3.1,182,3.2,182,3.1C182,3.2,182,3.1,182,3.1C182,3.1,182,3.1,182,3.1C182,3.1,182,3.1,182,3.1z"/>
			</g>
			<line style="fill:none;stroke:#000000;stroke-width:0.5;" x1="182" y1="3.1" x2="182" y2="3.1"/>
			<g>
				<path d="M182,3.1L182,3.1L182,3.1L182,3.1L182,3.1L182,3.1L182,3.1L182,3.1z"/>
				<path d="M182,3.1C182,3.1,182,3.1,182,3.1C182,3.1,182,3.1,182,3.1C182,3.1,182,3.1,182,3.1C182,3.1,182,3.1,182,3.1z M182,3.1
					C182,3.1,182,3.1,182,3.1C182,3.1,182,3.1,182,3.1C182,3.1,182,3.1,182,3.1C182,3.1,182,3.1,182,3.1z"/>
			</g>
			<line style="fill:none;stroke:#000000;stroke-width:0.5;" x1="182" y1="3.1" x2="182" y2="3.1"/>
			<g>
				<path d="M181.9,3.1L181.9,3.1L181.9,3.1C182,3.1,182,3.1,181.9,3.1C182,3.1,182,3.1,181.9,3.1C181.9,3.1,181.9,3.1,181.9,3.1
					L181.9,3.1C181.9,3.1,182,3.1,181.9,3.1C182,3.1,182,3.1,181.9,3.1C182,3.1,182,3.1,181.9,3.1L181.9,3.1L181.9,3.1L181.9,3.1
					L181.9,3.1z"/>
				<path d="M182,3.1C182,3.1,182,3.1,182,3.1C182,3.1,182,3.1,182,3.1C182,3.1,182,3.1,182,3.1C182,3.1,182,3.1,182,3.1z M182,3.1
					C182,3.1,182,3.1,182,3.1C182,3.1,182,3.1,182,3.1C182,3.1,182,3.1,182,3.1C182,3.1,182,3.1,182,3.1z"/>
			</g>
			<line style="fill:none;stroke:#000000;stroke-width:0.5;" x1="182" y1="3.1" x2="182" y2="3.1"/>
			<g>
				<path d="M181.9,3.1C181.9,3.1,181.9,3.1,181.9,3.1C182,3.1,182,3.1,181.9,3.1C182,3.1,182,3.1,181.9,3.1L181.9,3.1L181.9,3.1
					L181.9,3.1C182,3.1,182,3.1,181.9,3.1C182,3.1,182,3,181.9,3.1C181.9,3,181.9,3.1,181.9,3.1L181.9,3.1
					C181.9,3,181.9,3,181.9,3.1C182,3,182,3,181.9,3.1C182,3.1,182,3.1,181.9,3.1C182,3.1,182,3.1,181.9,3.1
					C182,3.1,182,3.1,181.9,3.1C181.9,3.1,181.9,3.1,181.9,3.1L181.9,3.1z"/>
				<path d="M182,3.1C182,3.1,182,3.1,182,3.1C182,3.1,182,3.1,182,3.1C182,3.1,182,3,182,3.1C182,3,182,3.1,182,3.1z M182,3.1
					C182,3.1,182,3.1,182,3.1C182,3.1,182,3.1,182,3.1C182,3.1,182,3,182,3.1C182,3,182,3.1,182,3.1z"/>
			</g>
		</g>
	</g>
</g>
<g>
	<path style="fill:#B74A26;stroke:#FFF0A5;stroke-width:4;stroke-miterlimit:10;" d="M44.3,102.1H37c-6.6,0-12-5.4-12-12V58.3
		c0-6.6,5.4-12,12-12h7.3c6.6,0,12,5.4,12,12v31.8C56.3,96.7,50.9,102.1,44.3,102.1z"/>
	<g>
		<path style="fill:#FFF0A5;" d="M56.3,54.3c0-4.4-3.3-8-7.4-8H32.4c-4.1,0-7.4,3.6-7.4,8v0L56.3,54.3L56.3,54.3z"/>
		<path style="fill:#FFF0A5;" d="M25,94.1c0,4.4,3.3,8,7.4,8h16.4c4.1,0,7.4-3.6,7.4-8v-3H25V94.1z"/>
	</g>
	<ellipse style="fill:#8E2C1D;" cx="40.6" cy="97.4" rx="3.4" ry="3.7"/>
	<path style="fill:#8E2C1D;" d="M48.2,50.3H33c-0.4,0-0.8-0.4-0.8-0.8v0c0-0.4,0.4-0.8,0.8-0.8h15.2c0.4,0,0.8,0.4,0.8,0.8v0
		C49,50,48.7,50.3,48.2,50.3z"/>
</g>
<g>
</g>
<g>
</g>
<g>
</g>
<g>
</g>
<g>
</g>
<g>
</g>
</svg>
