<svg xmlns="http://www.w3.org/2000/svg" width="144" height="144" viewBox="0 0 144 144"><path d="M104.4 109.5l-1.9-72.2 32.1 25.6c-4.4-29.2-29.5-51.5-59.9-51.5-33.5 0-60.6 27.1-60.6 60.6s27.1 60.6 60.6 60.6c9.1 0 17.8-2 25.5-5.6-33.1-1.3-52-12.1-54.1-13.8-5.7-4.6 58.3-3.7 58.3-3.7z" fill="#B74A26"/><path d="M135.3 72c0-3.1-.2-6.1-.7-9.1l-32.1-25.6 1.9 72.2s-64.1-.9-58.3 3.7c2.1 1.7 21 12.4 54.1 13.8 20.8-9.7 35.1-30.7 35.1-55z" fill="#8F3919"/><path d="M95.5 113.2h-41.5c-6.6 0-12-5.4-12-12v-51.4c0-6.6 5.4-12 12-12h41.5c6.6 0 12 5.4 12 12v51.4c0 6.6-5.4 12-12 12z" fill="#B74A26" stroke="#FFF0A5" stroke-width="4.981" stroke-miterlimit="10"/><path d="M107.5 48.9c0-6.4-4.9-11.6-10.8-11.6h-43.9c-5.9 0-10.8 5.2-10.8 11.6v4.5h65.5v-4.5zM48.7 61.7h11.6v10.1h-11.6zM62.3 61.7h11.6v10.1h-11.6zM76 61.7h11.6v10.1h-11.6zM90.2 61.7h11.6v10.1h-11.6zM48.7 77.2h11.6v10.1h-11.6zM62.3 77.2h11.6v10.1h-11.6zM76 77.2h11.6v10.1h-11.6zM90.2 77.2h11.6v10.1h-11.6zM48.7 92.6h11.6v10.1h-11.6zM62.3 92.6h11.6v10.1h-11.6zM76 92.6h11.6v10.1h-11.6zM90.2 92.6h11.6v10.1h-11.6z" fill="#FFF0A5"/><path d="M60.9 44.8c-1.6 0-2.9-1.3-2.9-2.9v-10.4c0-1.6 1.3-2.9 2.9-2.9 1.6 0 2.9 1.3 2.9 2.9v10.4c0 1.6-1.3 2.9-2.9 2.9zM91.1 44c-1.6 0-2.9-1.3-2.9-2.9v-10.4c0-1.6 1.3-2.9 2.9-2.9 1.6 0 2.9 1.3 2.9 2.9v10.4c0 1.6-1.3 2.9-2.9 2.9z" fill="#FFF0A5" stroke="#B74A26" stroke-width="3" stroke-miterlimit="10"/></svg>