<?xml version="1.0" encoding="utf-8"?>
<!-- Generator: Adobe Illustrator 19.1.0, SVG Export Plug-In . SVG Version: 6.00 Build 0)  -->
<svg version="1.1" id="Layer_1" xmlns="http://www.w3.org/2000/svg" xmlns:xlink="http://www.w3.org/1999/xlink" x="0px" y="0px"
	 width="200px" height="200px" viewBox="0 0 200 200" style="enable-background:new 0 0 200 200;" xml:space="preserve">
<circle style="fill:#FFF0A5;" cx="99.7" cy="99.7" r="94.9"/>
<g>
	<path style="fill:#468966;" d="M45.4,136.8c0-17.3,0-34.7,0-52c0.2,0,0.4,0,0.6,0c10.1,0,20.1,0,30.2,0c0.2,0,0.4,0,0.6,0
		c-0.2,0.2-0.3,0.4-0.4,0.5c-0.1,0.1-0.2,0.3-0.4,0.4c-2.3,3-3.3,6.5-3.8,10.2c-0.4,2.8-0.4,5.7-0.1,8.6c0.1,1.4,0.3,2.9,0.7,4.2
		c0.9,2.9,2.3,5.7,4.1,8.2c5.5,7.7,13,11.5,22.4,11.7c2.2,0.1,4.3-0.3,6.4-0.8c6.7-1.5,12.3-4.9,16.5-10.5c3.9-5.2,5.9-11,5.7-17.6
		c-0.2-5.4-2-10.3-4.9-14.8c-0.1-0.1-0.1-0.2-0.1-0.3c10.6,0,21.1,0,31.7,0c0,0.2,0,0.5,0,0.7c0,16,0,32.1,0,48.1
		c0,2.1-0.2,4.2-0.7,6.2c-0.9,4-2.6,7.5-5.6,10.3c-3.6,3.2-7.8,5-12.6,5c-23.3,0-46.5,0-69.8,0c-1.8,0-3.6-0.2-5.4-0.5
		c-3.7-0.6-7-2.2-9.7-5c-2.8-2.9-4.2-6.4-5-10.3C45.7,138.5,45.6,137.6,45.4,136.8z"/>
	<path style="fill:#468966;" d="M75.5,44.8c15.2,0,30.5,0,45.7,0c0.2,0,0.3,0.1,0.5,0.1c3.4,0,6.9,0,10.3,0c1.8,0,3.6,0,5.3,0.4
		c5.7,1.3,10.2,4.2,13.4,9.1c2.6,4,3.8,8.4,3.7,13.2c-0.1,3.6-0.1,7.3-0.2,10.9c0,0.8-0.1,1.6-0.1,2.4c-0.2,0-0.3,0-0.5,0
		c-11.3,0-22.6,0-33.9,0c-0.3,0-0.6-0.1-0.8-0.3c-2-1.6-4-3.1-6.3-4.3c-5.1-2.8-10.6-4-16.4-3.2c-6,0.8-11.3,3.4-16,7.2
		c-0.4,0.4-0.8,0.5-1.4,0.5c-3.7-0.1-7.3-0.2-11-0.3c-4.6-0.1-9.2-0.2-13.8-0.3c-3-0.1-5.9-0.1-8.9-0.2c0-5.7,0-11.3,0-17
		c0-0.1,0.1-0.3,0.1-0.4c0.2-1.4,0.3-2.9,0.6-4.3c0.7-3,2.1-5.6,4.6-7.6c1.1-0.9,2.3-1.5,3.8-1.9c0,7.6,0,15.2,0,22.8
		c1.5,0,2.9,0,4.3,0c0-0.1,0-0.3,0-0.4c0-4,0-8.1,0.1-12.1c0-3.8,0-7.5,0-11.3c0-0.4,0-0.8,0-1.2c0-0.1,0.1-0.3,0.2-0.3
		c0.9-0.3,1.9-0.6,2.8-0.9c0.1,8.8,0.2,17.5,0.3,26.2c1.4,0,2.8,0,4.2,0c0-0.5,0-0.9,0-1.4c0-3,0-6,0-9c0-2.2,0-4.5,0-6.7
		c0-3.3,0-6.6,0-9.9c1,0,2,0,3,0c0,0.1,0,0.2,0,0.3c0,4.7,0,9.4,0.1,14c0,4.1,0,8.1,0,12.2c0,0.2,0,0.4,0,0.6
		c1.5-0.1,2.9-0.1,4.2-0.2c0-9,0-17.9,0-26.9C74.5,44.9,75,44.9,75.5,44.8z M135.3,53.9c-1.6,0-3.2,0-4.8,0c-2.7,0-4.8,2.1-4.8,4.8
		c0,3.2,0,6.4,0,9.5c0,2.8,2.1,4.9,4.8,4.9c3.2,0,6.4,0,9.6,0c2.7,0,4.8-2.1,4.8-4.8c0-3.2,0-6.5,0-9.7c0-2.7-2.2-4.8-4.9-4.8
		C138.5,53.9,136.9,53.9,135.3,53.9z"/>
	<path style="fill:#468966;" d="M121.4,100.6c0,11.9-9.6,21.4-21.6,21.4c-11.7,0-21.3-9.7-21.3-21.6c0-11.8,9.7-21.3,21.6-21.3
		C111.9,79.1,121.4,88.8,121.4,100.6z M100,116.8c8.9,0,16-7.1,16.2-15.8c0.2-9.1-7-16.4-15.9-16.6c-9-0.2-16.5,7.1-16.6,16.2
		C83.7,109.5,91,116.8,100,116.8z"/>
</g>
</svg>
