<?xml version="1.0" encoding="utf-8"?>
<!-- Generator: Adobe Illustrator 19.1.0, SVG Export Plug-In . SVG Version: 6.00 Build 0)  -->
<svg version="1.1" id="Layer_1" xmlns="http://www.w3.org/2000/svg" xmlns:xlink="http://www.w3.org/1999/xlink" x="0px" y="0px"
	 width="180px" height="72px" viewBox="0 0 180 72" style="enable-background:new 0 0 180 72;" xml:space="preserve">
<g>
	<circle style="fill:#FBAF3C;stroke:#FFFFFF;stroke-width:5.6082;stroke-miterlimit:10;" cx="139.4" cy="35.7" r="32.4"/>
	<line style="fill:none;stroke:#FFFFFF;stroke-width:3.7388;stroke-miterlimit:10;" x1="139.4" y1="3.2" x2="139.4" y2="11.8"/>
	<line style="fill:none;stroke:#FFFFFF;stroke-width:3.7388;stroke-miterlimit:10;" x1="139.4" y1="60.2" x2="139.4" y2="68.8"/>
	<line style="fill:none;stroke:#FFFFFF;stroke-width:3.7388;stroke-miterlimit:10;" x1="163.2" y1="36.7" x2="171.8" y2="36.7"/>
	<line style="fill:none;stroke:#FFFFFF;stroke-width:3.7388;stroke-miterlimit:10;" x1="155.9" y1="53.9" x2="162" y2="60"/>
	<line style="fill:none;stroke:#FFFFFF;stroke-width:3.7388;stroke-miterlimit:10;" x1="162.7" y1="13.4" x2="156.6" y2="19.5"/>
</g>
<g>
	<path d="M140.7,36.9l-4.8,18.9l-5.6-1.4l4.8-18.9l-2.4-0.6l1.3-5.2l2.4,0.6l2.3-8.8l5.6,1.4l-2.3,8.8l11.1,2.9l-1.1,4.9L140.7,36.9
		z"/>
</g>
<g>
	<rect x="4" y="17" style="fill:none;" width="168.5" height="38.7"/>
	<path d="M22.2,54.1c-3.1,0-5.5-1.1-7.3-3.4h-0.4c0.2,2.2,0.4,3.5,0.4,3.8v10.6H7.8V27.3h5.8l1,3.4h0.3c1.7-2.6,4.2-3.9,7.4-3.9
		c3.1,0,5.5,1.2,7.3,3.6s2.6,5.7,2.6,10c0,2.8-0.4,5.2-1.2,7.3c-0.8,2.1-2,3.6-3.5,4.7C26,53.5,24.3,54.1,22.2,54.1z M20.1,32.6
		c-1.8,0-3.1,0.5-3.9,1.6c-0.8,1.1-1.2,2.9-1.3,5.4v0.8c0,2.8,0.4,4.8,1.3,6.1c0.8,1.2,2.2,1.8,4,1.8c3.2,0,4.8-2.6,4.8-7.9
		c0-2.6-0.4-4.5-1.2-5.8C23,33.2,21.8,32.6,20.1,32.6z"/>
	<path d="M43.5,53.6h-7.2V17h7.2V53.6z"/>
	<path d="M65.7,53.6L64.4,50h-0.2c-1.2,1.5-2.4,2.6-3.7,3.2c-1.3,0.6-2.9,0.9-5,0.9c-2.5,0-4.5-0.7-6-2.2s-2.2-3.5-2.2-6.2
		c0-2.8,1-4.8,2.9-6.2s4.9-2.1,8.8-2.2l4.6-0.1v-1.2c0-2.7-1.4-4-4.1-4c-2.1,0-4.6,0.6-7.4,1.9l-2.4-4.8c3-1.6,6.4-2.4,10.1-2.4
		c3.5,0,6.2,0.8,8.1,2.3c1.9,1.5,2.8,3.9,2.8,7v17.5H65.7z M63.6,41.4l-2.8,0.1c-2.1,0.1-3.6,0.4-4.7,1.1c-1,0.7-1.5,1.7-1.5,3.1
		c0,2,1.2,3,3.5,3c1.7,0,3-0.5,4-1.4c1-1,1.5-2.2,1.5-3.8V41.4z"/>
	<path d="M100.4,53.6h-7.2V38.3c0-1.9-0.3-3.3-1-4.3c-0.7-0.9-1.7-1.4-3.2-1.4c-2,0-3.5,0.7-4.3,2c-0.9,1.3-1.3,3.6-1.3,6.7v12.4
		h-7.2V27.3h5.5l1,3.4H83c0.8-1.3,1.9-2.2,3.3-2.9c1.4-0.6,3-1,4.8-1c3.1,0,5.4,0.8,7,2.5c1.6,1.7,2.4,4,2.4,7.2V53.6z"/>
	<path d="M103.6,43.6v-5.9h12.6v5.9H103.6z"/>
	<path d="M119.2,20.5c0-2.3,1.3-3.5,3.9-3.5c2.6,0,3.9,1.2,3.9,3.5c0,1.1-0.3,2-1,2.6c-0.7,0.6-1.6,0.9-2.9,0.9
		C120.5,24.1,119.2,22.9,119.2,20.5z M126.6,53.6h-7.2V27.3h7.2V53.6z"/>
</g>
<g>
</g>
<g>
</g>
<g>
</g>
<g>
</g>
<g>
</g>
<g>
</g>
</svg>
