<svg xmlns="http://www.w3.org/2000/svg" width="180" height="72" viewBox="0 0 180 72"><g stroke="#fff" stroke-miterlimit="10"><circle cx="139.4" cy="35.7" r="32.4" fill="#FBAF3C" stroke-width="5.608"/><path stroke-width="3.739" fill="none" d="M139.4 3.2v8.6M139.4 60.2v8.6M163.2 36.7h8.6M155.9 53.9l6.1 6.1M162.7 13.4l-6.1 6.1"/></g><path d="M140.7 36.9l-4.8 18.9-5.6-1.4 4.8-18.9-2.4-.6 1.3-5.2 2.4.6 2.3-8.8 5.6 1.4-2.3 8.8 11.1 2.9-1.1 4.9-11.3-2.6z"/><path fill="none" d="M4 17h168.5v38.7h-168.5z"/><path d="M22.2 54.1c-3.1 0-5.5-1.1-7.3-3.4h-.4c.2 2.2.4 3.5.4 3.8v10.6h-7.1v-37.8h5.8l1 3.4h.3c1.7-2.6 4.2-3.9 7.4-3.9 3.1 0 5.5 1.2 7.3 3.6s2.6 5.7 2.6 10c0 2.8-.4 5.2-1.2 7.3-.8 2.1-2 3.6-3.5 4.7s-3.2 1.7-5.3 1.7zm-2.1-21.5c-1.8 0-3.1.5-3.9 1.6-.8 1.1-1.2 2.9-1.3 5.4v.8c0 2.8.4 4.8 1.3 6.1.8 1.2 2.2 1.8 4 1.8 3.2 0 4.8-2.6 4.8-7.9 0-2.6-.4-4.5-1.2-5.8-.8-1.4-2-2-3.7-2zM43.5 53.6h-7.2v-36.6h7.2v36.6zM65.7 53.6l-1.3-3.6h-.2c-1.2 1.5-2.4 2.6-3.7 3.2-1.3.6-2.9.9-5 .9-2.5 0-4.5-.7-6-2.2s-2.2-3.5-2.2-6.2c0-2.8 1-4.8 2.9-6.2s4.9-2.1 8.8-2.2l4.6-.1v-1.2c0-2.7-1.4-4-4.1-4-2.1 0-4.6.6-7.4 1.9l-2.4-4.8c3-1.6 6.4-2.4 10.1-2.4 3.5 0 6.2.8 8.1 2.3 1.9 1.5 2.8 3.9 2.8 7v17.5h-5zm-2.1-12.2l-2.8.1c-2.1.1-3.6.4-4.7 1.1-1 .7-1.5 1.7-1.5 3.1 0 2 1.2 3 3.5 3 1.7 0 3-.5 4-1.4 1-1 1.5-2.2 1.5-3.8v-2.1zM100.4 53.6h-7.2v-15.3c0-1.9-.3-3.3-1-4.3-.7-.9-1.7-1.4-3.2-1.4-2 0-3.5.7-4.3 2-.9 1.3-1.3 3.6-1.3 6.7v12.4h-7.2v-26.4h5.5l1 3.4h.3c.8-1.3 1.9-2.2 3.3-2.9 1.4-.6 3-1 4.8-1 3.1 0 5.4.8 7 2.5 1.6 1.7 2.4 4 2.4 7.2v17.1zM103.6 43.6v-5.9h12.6v5.9h-12.6zM119.2 20.5c0-2.3 1.3-3.5 3.9-3.5 2.6 0 3.9 1.2 3.9 3.5 0 1.1-.3 2-1 2.6-.7.6-1.6.9-2.9.9-2.6.1-3.9-1.1-3.9-3.5zm7.4 33.1h-7.2v-26.3h7.2v26.3z"/></svg>