<?xml version="1.0" encoding="utf-8"?>
<!-- Generator: Adobe Illustrator 19.1.0, SVG Export Plug-In . SVG Version: 6.00 Build 0)  -->
<svg version="1.1" id="Layer_1" xmlns="http://www.w3.org/2000/svg" xmlns:xlink="http://www.w3.org/1999/xlink" x="0px" y="0px"
	 width="144px" height="54.3px" viewBox="0 0 144 54.3" style="enable-background:new 0 0 144 54.3;" xml:space="preserve">
<g>
	<circle style="fill:#FBAF3C;stroke:#FFFFFF;stroke-width:4.2248;stroke-miterlimit:10;" cx="111.3" cy="26.9" r="24.4"/>
	<line style="fill:none;stroke:#FFFFFF;stroke-width:2.8165;stroke-miterlimit:10;" x1="111.3" y1="2.5" x2="111.3" y2="9"/>
	<line style="fill:none;stroke:#FFFFFF;stroke-width:2.8165;stroke-miterlimit:10;" x1="111.3" y1="45.4" x2="111.3" y2="51.9"/>
	<line style="fill:none;stroke:#FFFFFF;stroke-width:2.8165;stroke-miterlimit:10;" x1="86.9" y1="27.7" x2="93.3" y2="27.7"/>
	<line style="fill:none;stroke:#FFFFFF;stroke-width:2.8165;stroke-miterlimit:10;" x1="129.2" y1="27.7" x2="135.7" y2="27.7"/>
	<line style="fill:none;stroke:#FFFFFF;stroke-width:2.8165;stroke-miterlimit:10;" x1="98.5" y1="40.5" x2="93.9" y2="45"/>
	<line style="fill:none;stroke:#FFFFFF;stroke-width:2.8165;stroke-miterlimit:10;" x1="93.7" y1="10.7" x2="98.3" y2="15.3"/>
	<line style="fill:none;stroke:#FFFFFF;stroke-width:2.8165;stroke-miterlimit:10;" x1="123.7" y1="40.6" x2="128.3" y2="45.2"/>
	<line style="fill:none;stroke:#FFFFFF;stroke-width:2.8165;stroke-miterlimit:10;" x1="128.8" y1="10.1" x2="124.2" y2="14.7"/>
</g>
<g>
	<path d="M112.2,26.9l-3.6,14.2l-4.2-1.1l3.6-14.2l-1.8-0.5l1-3.9l1.8,0.5l1.7-6.6l4.2,1.1l-1.7,6.6l8.3,2.2l-0.8,3.7L112.2,26.9z"
		/>
</g>
<g>
	<rect x="8.3" y="12.9" style="fill:none;" width="127" height="29.1"/>
	<path d="M22,40.8c-2.3,0-4.1-0.8-5.5-2.5h-0.3c0.2,1.7,0.3,2.6,0.3,2.9v8h-5.4V20.6h4.4l0.8,2.6h0.2c1.3-2,3.1-2.9,5.6-2.9
		c2.3,0,4.2,0.9,5.5,2.7c1.3,1.8,2,4.3,2,7.5c0,2.1-0.3,3.9-0.9,5.5s-1.5,2.7-2.6,3.6S23.5,40.8,22,40.8z M20.4,24.6
		c-1.3,0-2.3,0.4-2.9,1.2c-0.6,0.8-0.9,2.2-1,4.1v0.6c0,2.1,0.3,3.6,0.9,4.6c0.6,0.9,1.6,1.4,3,1.4c2.4,0,3.6-2,3.6-6
		c0-1.9-0.3-3.4-0.9-4.4C22.6,25.1,21.7,24.6,20.4,24.6z"/>
	<path d="M38,40.4h-5.4V12.9H38V40.4z"/>
	<path d="M54.8,40.4l-1-2.7h-0.1c-0.9,1.1-1.8,1.9-2.8,2.4s-2.2,0.7-3.8,0.7c-1.9,0-3.4-0.5-4.5-1.6c-1.1-1.1-1.6-2.6-1.6-4.6
		c0-2.1,0.7-3.6,2.2-4.6c1.5-1,3.7-1.5,6.6-1.7l3.4-0.1v-0.9c0-2-1-3-3.1-3c-1.6,0-3.4,0.5-5.6,1.4L42.8,22c2.3-1.2,4.8-1.8,7.6-1.8
		c2.7,0,4.7,0.6,6.1,1.7c1.4,1.2,2.1,2.9,2.1,5.3v13.2H54.8z M53.2,31.3l-2.1,0.1c-1.6,0-2.7,0.3-3.5,0.8s-1.2,1.3-1.2,2.4
		c0,1.5,0.9,2.3,2.6,2.3c1.3,0,2.3-0.4,3-1.1s1.1-1.7,1.1-2.9V31.3z"/>
	<path d="M80.9,40.4h-5.4V28.9c0-1.4-0.3-2.5-0.8-3.2c-0.5-0.7-1.3-1.1-2.4-1.1c-1.5,0-2.6,0.5-3.3,1.5c-0.7,1-1,2.7-1,5v9.3h-5.4
		V20.6h4.1l0.7,2.5h0.3c0.6-1,1.4-1.7,2.5-2.2c1.1-0.5,2.3-0.7,3.6-0.7c2.3,0,4,0.6,5.2,1.9c1.2,1.2,1.8,3,1.8,5.4V40.4z"/>
	<path d="M83.3,32.9v-4.4h9.5v4.4H83.3z"/>
	<path d="M95,15.5c0-1.8,1-2.6,2.9-2.6s2.9,0.9,2.9,2.6c0,0.8-0.2,1.5-0.7,2c-0.5,0.5-1.2,0.7-2.2,0.7C96,18.2,95,17.3,95,15.5z
		 M100.7,40.4h-5.4V20.6h5.4V40.4z"/>
</g>
<g>
</g>
<g>
</g>
<g>
</g>
<g>
</g>
<g>
</g>
<g>
</g>
</svg>
