<svg xmlns="http://www.w3.org/2000/svg" xmlns:xlink="http://www.w3.org/1999/xlink" width="200" height="200" viewBox="0 0 200 200"><circle cx="386.1" cy="99.7" r="94.9" fill="#FFF0A5"/><circle cx="673.1" cy="99.7" r="94.9" fill="#FFF0A5"/><circle cx="100.1" cy="99.7" r="94.9" fill="#FFF0A5"/><circle cx="-185.9" cy="99.7" r="94.9" fill="#FFF0A5"/><g fill="#468966"><path d="M331.8 136.8v-52h31.400000000000002c-.2.2-.3.4-.4.5-.1.1-.2.3-.4.4-2.3 3-3.3 6.5-3.8 10.2-.4 2.8-.4 5.7-.1 8.6.1 1.4.3 2.9.7 4.2.9 2.9 2.3 5.7 4.1 8.2 5.5 7.7 13 11.5 22.4 11.7 2.2.1 4.3-.3 6.4-.8 6.7-1.5 12.3-4.9 16.5-10.5 3.9-5.2 5.9-11 5.7-17.6-.2-5.4-2-10.3-4.9-14.8-.1-.1-.1-.2-.1-.3h31.7v48.800000000000004c0 2.1-.2 4.2-.7 6.2-.9 4-2.6 7.5-5.6 10.3-3.6 3.2-7.8 5-12.6 5h-69.8c-1.8 0-3.6-.2-5.4-.5-3.7-.6-7-2.2-9.7-5-2.8-2.9-4.2-6.4-5-10.3-.1-.6-.2-1.5-.4-2.3zM361.9 44.8h45.7l.5.1h10.3c1.8 0 3.6 0 5.3.4 5.7 1.3 10.2 4.2 13.4 9.1 2.6 4 3.8 8.4 3.7 13.2l-.2 10.9-.1 2.4h-34.4c-.3 0-.6-.1-.8-.3-2-1.6-4-3.1-6.3-4.3-5.1-2.8-10.6-4-16.4-3.2-6 .8-11.3 3.4-16 7.2-.4.4-.8.5-1.4.5l-11-.3-13.8-.3-8.9-.2v-17l.1-.4c.2-1.4.3-2.9.6-4.3.7-3 2.1-5.6 4.6-7.6 1.1-.9 2.3-1.5 3.8-1.9v22.8h4.3v-.4c0-4 0-8.1.1-12.1v-12.5c0-.1.1-.3.2-.3l2.8-.9c.1 8.8.2 17.5.3 26.2h4.2v-27h3v.3c0 4.7 0 9.4.1 14v12.799999999999999c1.5-.1 2.9-.1 4.2-.2v-26.9c1.1.3 1.6.3 2.1.2zm59.8 9.1h-4.8c-2.7 0-4.8 2.1-4.8 4.8v9.5c0 2.8 2.1 4.9 4.8 4.9h9.6c2.7 0 4.8-2.1 4.8-4.8v-9.7c0-2.7-2.2-4.8-4.9-4.8-1.5.1-3.1.1-4.7.1zM407.8 100.6c0 11.9-9.6 21.4-21.6 21.4-11.7 0-21.3-9.7-21.3-21.6 0-11.8 9.7-21.3 21.6-21.3 11.8 0 21.3 9.7 21.3 21.5zm-21.4 16.2c8.9 0 16-7.1 16.2-15.8.2-9.1-7-16.4-15.9-16.6-9-.2-16.5 7.1-16.6 16.2 0 8.9 7.3 16.2 16.3 16.2z"/></g><path d="M655.9 172.4v-63.300000000000004c0-.7 0-.7-.7-.7h-15.9c-.6 0-.6 0-.6-.7v-22c0-.6 0-.7.7-.7h16.6v-8.7c.1-3.5.4-6.9 1-10.4.8-4.5 2-8.9 4-13.1 1.8-3.7 3.9-7.1 7.1-9.7 2.4-2 5.1-3.4 8-4.5 3.1-1.2 6.4-1.9 9.7-2.4 4.6-.7 9.2-.9 13.8-.8 2.4 0 4.7.1 7.1.2.4 0 .6.2.6.6v23.099999999999998l-2.1-.1c-3.4-.3-6.8-.4-10.2 0-2.4.3-4.9.7-7 2-3.2 2-5.4 4.7-5.8 8.6-.2 2.6-.4 5.2-.5 7.8-.1 2.3-.1 4.6-.1 6.8v.6h25.099999999999998c.7 0 .7 0 .7.7v22.599999999999998h-25.7v64.10000000000001h-25.8z" fill="#468966"/><image width="626" height="626" xlink:href="D1C4C05A92C638A5.png" transform="matrix(.274 0 0 .274 -271.791 5.285)" overflow="visible"/><path d="M29.9 144.9c15.1.4 29.3-2.3 41.5-11.7v-.3c-.6-.1-1.2-.2-1.9-.3-5.7-.9-11.1-2.8-15.6-6.6-4.1-3.4-6.7-7.8-8.5-12.8 0-.1 0-.2-.1-.5 4 .2 8 .5 11.8-.8l-.8-.3c-4.8-1.3-9.1-3.4-12.7-6.9-4.3-4.1-6.6-9.3-7.9-15.1-.4-1.7-.6-3.4-.9-5.1-.1-.3 0-.7 0-1.2 4 2 8 3.2 12.6 3.2-7.1-5.5-11.8-12.5-12.1-21.8-.1-5.7 1.4-10.9 3.9-16.1 15.8 18.2 35.5 28.4 59.6 30.3-.2-1-.3-1.8-.5-2.7-1.3-8.5.9-16.1 6.4-22.7 4.6-5.4 10.4-8.9 17.5-10.1 7.3-1.2 14 .3 20.1 4.3 1.8 1.2 3.3 2.6 5 3.9.4.3.9.5 1.3.4 6.2-1.1 12.2-2.8 17.2-6.8.1-.1.1-.1.2-.1h.3c-1.5 6.9-5.6 11.9-11.4 15.7 5.2-.5 10.1-1.8 15.1-3.8l-.4.8c-3.4 5.2-7.6 9.6-12.9 13.1-.6.4-.9.8-.9 1.6 0 10-1.3 19.9-4.4 29.4-3.5 10.9-9 20.7-16.7 29.2-6.6 7.4-14.3 13.3-23.1 17.8-8.4 4.3-17.4 7.1-26.8 8.4-5 .7-10 .9-15 .7-14.3-.7-27.5-4.8-39.6-12.6-.1-.1-.2-.2-.4-.2.2 0 .2-.1.1-.3z" fill="#FFB03B"/></svg>